<?xml version="1.0" encoding="utf-8"?>
<!-- Generator: Adobe Illustrator 19.1.0, SVG Export Plug-In . SVG Version: 6.00 Build 0)  -->
<svg version="1.1" id="Capa_1" xmlns="http://www.w3.org/2000/svg" xmlns:xlink="http://www.w3.org/1999/xlink" x="0px" y="0px"
	 viewBox="0 0 189 111" style="enable-background:new 0 0 189 111;" xml:space="preserve">
<style type="text/css">
	.st0{fill:#1D3B5D;}
	.st1{fill:#072647;}
	.st2{fill:#4A996E;}
	.st3{fill:#2F7850;}
	.st4{fill:#F3E4D0;}
	.st5{fill:#FCBE24;}
	.st6{fill:#D08500;}
	.st7{fill:#FDDE6E;}
	.st8{fill:#FFFFFF;}
	.st9{fill:#187BC5;}
	.st10{fill:#05192B;}
	.st11{fill:#FFE7C5;}
	.st12{fill:#204F34;}
</style>
<g>
	<g>
		<path class="st5" d="M94.4,7.7c16,0,31.6,2,46.8,7c9.7,3.2,18.8,7.5,26.5,14.3c3.1,2.7,5.7,5.7,7.7,9.3c4.7,8.8,3.7,17.3-2.1,25.2
			c-4.2,5.7-9.8,9.8-15.9,13.2C145.3,83.4,132.2,87,118.6,89c-15.4,2.3-30.9,2.4-46.3,0.3c-13.1-1.8-25.8-5-37.7-11
			c-6.9-3.4-13.2-7.6-18.1-13.7c-4.3-5.3-6.8-11.3-5.8-18.3c0.8-5.7,3.6-10.4,7.5-14.6c6.3-6.7,14.1-11.1,22.5-14.5
			c13.9-5.7,28.5-8.4,43.5-9.3c1.7-0.1,3.4-0.2,5.1-0.2C91,7.6,92.7,7.7,94.4,7.7z M94.4,87.4c6.2-0.5,12.3-0.7,18.5-1.4
			c13.2-1.5,26-4.7,37.8-10.9c6-3.2,11.6-7,15.8-12.5c5.6-7.4,6.6-15.3,2-23.6c-2-3.6-4.8-6.6-8-9.2c-6.9-5.7-14.9-9.4-23.4-12.1
			c-16.3-5.3-33.1-7-50.1-6.2c-15.7,0.7-31,3.5-45.5,10.1c-7,3.2-13.5,7.2-18.5,13.3c-5.1,6.1-7.2,12.9-4.7,20.7
			c1.4,4.2,4,7.7,7.2,10.7c6.4,6.1,14,10.1,22.2,13.1C62.8,85,78.5,87,94.4,87.4z"/>
		<path class="st5" d="M129.1,90.7c0,2.2,0.1,4.2-0.1,6.2c0,0.3-0.7,0.8-1.2,0.9c-2.4,0.6-2.4,0.6-2.4-1.9c0-1,0.1-2,0-2.9
			c-0.2-1.4,0.4-2,1.7-2.1C127.7,91,128.3,90.9,129.1,90.7z"/>
		<path class="st5" d="M88.9,97.5c0-0.4,0-0.8,0-1.2c0-2.1,1-2.8,3-2.1c0.3,0.1,0.6,0.6,0.6,0.9c0.1,1.7,0.1,3.4,0,5.1
			c0,0.3-0.6,0.9-0.9,0.9c-3.2,0-2.6,0.3-2.6-2.5C88.9,98.2,88.9,97.9,88.9,97.5z"/>
		<path class="st5" d="M121.8,92.1c0,2.2,0,4.2,0,6.2c0,0.3-0.4,0.7-0.7,0.8c-2.5,0.9-2.9,0.5-2.9-2.1c0-1,0.1-2.1,0-3.1
			c-0.1-1.1,0.3-1.6,1.4-1.6C120.2,92.3,120.9,92.2,121.8,92.1z"/>
		<path class="st5" d="M85,100.8c-0.8,0-1.7,0-2.5-0.2c-0.4-0.1-0.9-0.6-0.9-1c-0.1-1.7,0-3.4,0-5.1c0-0.7,0.3-0.9,1-0.9
			c2.7,0,2.7,0,2.7,2.6c0,1.3,0,2.7,0,4C85.2,100.5,85.1,100.6,85,100.8z"/>
		<path class="st5" d="M63.3,98.2c-1.2-0.2-2.2-0.4-3.1-0.6c-0.2,0-0.4-0.4-0.4-0.6c0-2,0-4.1,0-6c0.3-0.1,0.4-0.2,0.4-0.2
			c3.2,0.4,3.2,0.4,3.2,3.6C63.3,95.6,63.3,96.8,63.3,98.2z"/>
		<path class="st5" d="M56,96.6c-1.2-0.3-2.1-0.5-2.9-0.8c-0.3-0.1-0.6-0.5-0.6-0.7c-0.1-2,0-4,0-6.1c1.1,0.3,2.1,0.4,3,0.7
			c0.3,0.1,0.6,0.5,0.6,0.8C56,92.4,56,94.4,56,96.6z"/>
		<path class="st5" d="M151.1,84.1c0,2.2,0,4.1,0,5.9c0,0.3-0.2,0.6-0.4,0.8c-0.9,0.5-1.9,0.9-3.2,1.4c0-2.3,0-4.3,0-6.3
			c0-0.2,0.3-0.6,0.6-0.7C149,84.8,149.9,84.5,151.1,84.1z"/>
		<path class="st5" d="M99.9,97.6c0,0.4,0,0.7,0,1.1c0,2.4-0.5,2.8-2.9,2.4c-0.3-0.1-0.7-0.6-0.7-0.9c-0.1-1.7-0.1-3.4,0-5.1
			c0-0.3,0.6-0.9,0.9-0.9c2.7-0.3,2.7-0.3,2.7,2.4C99.9,96.9,99.9,97.3,99.9,97.6z"/>
		<path class="st5" d="M114.5,93.1c0,2.2,0,4.3,0,6.4c0,0.2-0.4,0.5-0.7,0.6c-0.4,0.1-0.8,0.1-1.2,0.2c-1.2,0.3-1.8-0.1-1.7-1.5
			c0.1-1.3,0.1-2.6,0-3.9c-0.1-1.1,0.2-1.7,1.4-1.6C113,93.3,113.6,93.2,114.5,93.1z"/>
		<path class="st5" d="M74.3,93.3c0.3-0.1,0.4-0.2,0.5-0.1c3.7,0.4,3-0.3,3.1,3.2c0,1,0,2,0,3.1c0,0.7-0.2,1-1,0.9c0,0-0.1,0-0.1,0
			c-2.5-0.1-2.5-0.1-2.5-2.6C74.3,96.2,74.3,94.8,74.3,93.3z"/>
		<path class="st5" d="M107,100.5c-3.4,0.7-3.4,0.7-3.4-2.7c0-0.9,0-1.9,0-2.8c0-0.8,0.2-1.1,1.1-1.2c3-0.1,2.5-0.5,2.5,2.3
			c0,1.3,0,2.7,0,4C107.1,100.3,107.1,100.4,107,100.5z"/>
		<path class="st5" d="M136.4,89c0,2.2,0,4.2,0,6.2c0,0.3-0.3,0.7-0.5,0.8c-0.9,0.3-1.9,0.5-3,0.8c0-2.3,0-4.4,0-6.5
			c0-0.2,0.4-0.6,0.7-0.7C134.5,89.4,135.3,89.2,136.4,89z"/>
		<path class="st5" d="M70.6,99.3c-3.6,0.1-3.6,0-3.6-3.2c0-1.3,0-2.6,0-4c1.1,0.2,2.1,0.2,3,0.4c0.3,0.1,0.5,0.4,0.6,0.7
			c0.1,0.2,0,0.5,0,0.8C70.6,95.8,70.6,97.5,70.6,99.3z"/>
		<path class="st5" d="M143.7,86.7c0,2.3,0,4.3,0,6.4c0,0.2-0.2,0.5-0.4,0.6c-0.9,0.4-1.9,0.7-3.1,1.1c0-2.3,0-4.3,0-6.4
			c0-0.2,0.3-0.6,0.5-0.7C141.6,87.4,142.6,87.1,143.7,86.7z"/>
		<path class="st5" d="M154.8,88.8c0-2.2,0-4.1,0-6c0-0.2,0.3-0.5,0.6-0.7c0.9-0.5,1.8-0.9,3-1.5c0,2.1,0,3.9,0,5.7
			c0,0.3-0.5,0.7-0.9,0.9C156.7,87.8,155.9,88.3,154.8,88.8z"/>
		<path class="st5" d="M45,86.8c1.2,0.4,2.2,0.6,3.1,1c0.2,0.1,0.5,0.5,0.5,0.7c0,1.9,0,3.8,0,6c-1.2-0.4-2.2-0.8-3.2-1.2
			c-0.2-0.1-0.4-0.4-0.4-0.6C45,90.8,45,88.9,45,86.8z"/>
		<path class="st5" d="M37.7,84.1c1.2,0.4,2.1,0.8,3,1.2c0.3,0.1,0.6,0.5,0.6,0.8c0,1.8,0,3.6,0,5.7c-1.2-0.5-2.2-0.9-3.1-1.3
			c-0.2-0.1-0.5-0.5-0.5-0.7C37.7,87.9,37.7,86.1,37.7,84.1z"/>
		<path class="st5" d="M30.5,80.7c1.2,0.6,2.2,1.1,3.1,1.6c0.2,0.1,0.4,0.4,0.4,0.6c0,1.7,0,3.4,0,5.5c-1.3-0.7-2.2-1.3-3.2-1.9
			c-0.2-0.1-0.3-0.4-0.3-0.6C30.4,84.3,30.5,82.7,30.5,80.7z"/>
		<path class="st5" d="M162.2,84.1c0-1.7,0-3.3,0-5c0-0.3,0.5-0.7,0.8-0.9c0.8-0.5,1.6-1,2.6-1.6c0,1.9,0.4,3.7-0.1,5.1
			c-0.4,1.1-1.9,1.8-2.9,2.7C162.5,84.2,162.3,84.2,162.2,84.1z"/>
		<path class="st5" d="M26.5,83.6c-3.3-1.6-4.1-3.3-3.2-6.7C26.4,77.7,27.4,79.7,26.5,83.6z"/>
		<path class="st5" d="M172.8,71.4c1.1,3.2-0.8,5.1-3.1,6.9C168.6,75.4,170.1,72.1,172.8,71.4z"/>
		<path class="st5" d="M19.1,77.6c-1.7-2-4.1-3.2-3.2-6.3C18.8,72.3,19.8,74.2,19.1,77.6z"/>
		<path class="st5" d="M180.3,63c-1,2.1-2,4.2-3,6.3c-0.2,0-0.4-0.1-0.6-0.1c0.1-0.8,0-1.8,0.4-2.5c0.8-1.4,1.9-2.6,2.8-3.9
			C180.1,62.8,180.2,62.9,180.3,63z"/>
		<path class="st5" d="M96.2,83.8c-15.2,0-28.5-1.6-41.4-5.8c-9.1-2.9-17.6-6.8-24.6-13.5c-3.1-2.9-5.5-6.3-6.7-10.4
			c-1.9-6.4-0.1-12.1,3.9-17.2c3.8-4.9,8.8-8.3,14.3-11.2C52,20.4,63,17.5,74.3,15.9c12.6-1.8,25.3-1.9,37.9-0.3
			c13.5,1.7,26.6,5,38.4,12.1c3.7,2.2,7,4.8,9.8,8.1c7.4,8.4,7.4,18.5-0.1,26.9c-5.1,5.7-11.5,9.4-18.3,12.3
			C126.8,81.5,110.8,83.7,96.2,83.8z M71.2,49.5c0,7.3,0,14.6,0,21.9c0,1.2,0.3,1.7,1.6,1.6c1-0.1,2.1,0,3.1,0c2,0,2,0,2-1.9
			c0-12,0-24,0-36c0-0.4-0.1-0.9,0-1.3c0.1-0.4,0.6-0.9,0.8-0.9c5,0,9.9,0,14.9,0.3c3.1,0.2,4.1,1.5,4.4,4.6
			c0.1,1.8,0.1,3.7,0.1,5.5c0,5.4,0,10.8,0,16.3c0,1.1,0.3,1.5,1.5,1.5c1.2-0.1,2.5-0.1,3.8,0c1.1,0.1,1.5-0.4,1.4-1.5
			c-0.1-3.9,0-7.7,0-11.6c0-3.3,0-6.6-0.2-9.9c-0.2-3.4-1.4-6.5-4.1-8.8c-2.5-2.1-5.4-2.8-8.5-2.8c-6.4-0.2-12.8-0.1-19.2-0.3
			c-1.3,0-1.6,0.4-1.6,1.6C71.2,35,71.2,42.2,71.2,49.5z M84.4,72.6c8.1-0.3,15.9-0.2,23.7-0.9c5-0.4,8.1-3.8,9.3-8.8
			c0.3-1.1,0.4-2.3,0.5-3.5c0.1-0.9,0.1-1.9,0.1-2.8c0-9.6,0-19.2,0-28.7c0-1.7,0-1.7-1.8-1.7c-1.1,0-2.2,0.1-3.4,0
			c-1.2-0.1-1.5,0.3-1.5,1.5c0,5.6,0,11.3,0,16.9c0,5.2,0,10.5-0.1,15.7c-0.1,3.7-1.2,4.9-4.8,5.1c-4.6,0.3-9.3,0.2-14,0.3
			c-1.1,0-1.4-0.4-1.4-1.5c0-7.3,0-14.6,0-21.9c0-0.8,0-1.5,0-2.3c0.1-0.9-0.3-1.3-1.2-1.2c-1.3,0.1-2.5,0.1-3.8,0
			c-1.3-0.1-1.7,0.3-1.7,1.6c0.1,10.1,0,20.1,0,30.2C84.4,71.2,84.4,71.7,84.4,72.6z"/>
	</g>
	<path class="st6" d="M93.3,104.7c-15.6-0.1-31-1.8-46-6.4c-9.6-2.9-18.6-6.9-26.5-13.2c-8.9-7-14.9-15.8-15.8-27.4
		c-0.3-4.1-0.3-8.3,0.2-12.3c1-7.4,5.3-13,10.6-17.9c8-7.3,17.6-11.9,27.7-15.4c20.3-7,41.3-8.9,62.7-7.6
		c13.9,0.9,27.5,3.3,40.7,8.1c9.5,3.4,18.5,7.9,26.1,14.8c5.3,4.8,9.6,10.4,10.7,17.7c1.5,9.3,0.8,18.3-3.4,26.9
		c-2.9,5.9-7.5,10.4-12.8,14.3c-9.4,6.9-20.1,10.9-31.3,13.7C122.1,103.5,107.8,104.8,93.3,104.7z M94.4,7.7c-1.7,0-3.4,0-5.1,0
		c-1.7,0-3.4,0.1-5.1,0.2c-15,0.9-29.6,3.6-43.5,9.3c-8.4,3.4-16.2,7.8-22.5,14.5c-3.9,4.1-6.7,8.9-7.5,14.6c-1,7,1.5,13,5.8,18.3
		c4.9,6,11.2,10.2,18.1,13.7c11.9,6,24.6,9.2,37.7,11c15.4,2.1,30.9,2,46.3-0.3c13.6-2,26.7-5.6,38.8-12.4
		c6.1-3.4,11.7-7.5,15.9-13.2c5.8-7.9,6.9-16.4,2.1-25.2c-1.9-3.6-4.6-6.6-7.7-9.3c-7.8-6.8-16.9-11.1-26.5-14.3
		C126,9.6,110.3,7.6,94.4,7.7z M129.1,90.7c-0.8,0.1-1.4,0.3-1.9,0.3c-1.3,0.1-1.9,0.7-1.7,2.1c0.1,1,0,2,0,2.9c0,2.4,0,2.5,2.4,1.9
		c0.5-0.1,1.1-0.6,1.2-0.9C129.2,95,129.1,93,129.1,90.7z M88.9,97.5c0,0.4,0,0.7,0,1.1c0,2.8-0.5,2.4,2.6,2.5
		c0.3,0,0.9-0.6,0.9-0.9c0.1-1.7,0.1-3.4,0-5.1c0-0.3-0.3-0.8-0.6-0.9c-2.1-0.7-3,0-3,2.1C88.9,96.7,88.9,97.1,88.9,97.5z
		 M121.8,92.1c-0.9,0.1-1.6,0.2-2.2,0.3c-1.1,0.1-1.5,0.5-1.4,1.6c0.1,1,0,2,0,3.1c0,2.6,0.4,2.9,2.9,2.1c0.3-0.1,0.7-0.5,0.7-0.8
		C121.8,96.3,121.8,94.3,121.8,92.1z M85,100.8c0.1-0.2,0.2-0.4,0.2-0.5c0-1.3,0-2.7,0-4c0-2.6,0-2.6-2.7-2.6c-0.7,0-1,0.2-1,0.9
		c0,1.7,0,3.4,0,5.1c0,0.3,0.5,0.9,0.9,1C83.3,100.8,84.2,100.8,85,100.8z M63.3,98.2c0-1.4,0-2.6,0-3.8c0-3.2,0-3.2-3.2-3.6
		c-0.1,0-0.2,0.1-0.4,0.2c0,2,0,4,0,6c0,0.2,0.2,0.5,0.4,0.6C61.1,97.8,62.1,98,63.3,98.2z M56,96.6c0-2.2,0-4.2,0-6.1
		c0-0.3-0.3-0.7-0.6-0.8c-0.9-0.3-1.9-0.5-3-0.7c0,2.2,0,4.2,0,6.1c0,0.2,0.4,0.6,0.6,0.7C53.9,96.1,54.8,96.3,56,96.6z M151.1,84.1
		c-1.2,0.4-2.1,0.8-3,1.2c-0.2,0.1-0.6,0.4-0.6,0.7c0,2,0,4,0,6.3c1.2-0.5,2.2-0.9,3.2-1.4c0.2-0.1,0.4-0.5,0.4-0.8
		C151.1,88.1,151.1,86.3,151.1,84.1z M99.9,97.6c0-0.4,0-0.7,0-1.1c0-2.7,0-2.7-2.7-2.4c-0.4,0-0.9,0.6-0.9,0.9
		c-0.1,1.7-0.1,3.4,0,5.1c0,0.3,0.4,0.8,0.7,0.9c2.4,0.5,2.9,0,2.9-2.4C99.9,98.3,99.9,98,99.9,97.6z M114.5,93.1
		c-0.9,0.1-1.5,0.2-2.2,0.2c-1.2-0.1-1.5,0.5-1.4,1.6c0.1,1.3,0.1,2.6,0,3.9c-0.1,1.4,0.5,1.7,1.7,1.5c0.4-0.1,0.8,0,1.2-0.2
		c0.3-0.1,0.7-0.4,0.7-0.6C114.5,97.4,114.5,95.3,114.5,93.1z M74.3,93.3c0,1.5,0,3,0,4.4c0,2.5,0,2.5,2.5,2.6c0,0,0.1,0,0.1,0
		c0.7,0.1,1-0.2,1-0.9c0-1,0-2,0-3.1c-0.1-3.5,0.7-2.8-3.1-3.2C74.7,93.1,74.6,93.2,74.3,93.3z M107,100.5c0-0.1,0.1-0.2,0.1-0.4
		c0-1.3,0-2.7,0-4c0-2.8,0.4-2.4-2.5-2.3c-0.8,0-1.1,0.4-1.1,1.2c0,0.9,0,1.9,0,2.8C103.6,101.3,103.6,101.3,107,100.5z M136.4,89
		c-1.1,0.3-2,0.4-2.8,0.7c-0.3,0.1-0.7,0.4-0.7,0.7c-0.1,2.1,0,4.2,0,6.5c1.2-0.3,2.1-0.5,3-0.8c0.2-0.1,0.5-0.5,0.5-0.8
		C136.5,93.2,136.4,91.2,136.4,89z M70.6,99.3c0-1.8,0-3.5,0-5.3c0-0.3,0.1-0.6,0-0.8c-0.1-0.3-0.4-0.7-0.6-0.7
		c-0.9-0.2-1.8-0.3-3-0.4c0,1.5,0,2.8,0,4C67,99.3,67,99.4,70.6,99.3z M143.7,86.7c-1.2,0.4-2.1,0.6-3,1c-0.2,0.1-0.5,0.4-0.5,0.7
		c0,2,0,4.1,0,6.4c1.2-0.4,2.2-0.7,3.1-1.1c0.2-0.1,0.4-0.4,0.4-0.6C143.7,91.1,143.7,89,143.7,86.7z M154.8,88.8
		c1.1-0.6,1.9-1,2.7-1.5c0.4-0.2,0.9-0.6,0.9-0.9c0.1-1.8,0-3.6,0-5.7c-1.2,0.6-2.1,1-3,1.5c-0.2,0.1-0.6,0.4-0.6,0.7
		C154.8,84.7,154.8,86.6,154.8,88.8z M45,86.8c0,2.1,0,4,0,5.9c0,0.2,0.2,0.5,0.4,0.6c1,0.4,2,0.7,3.2,1.2c0-2.2,0-4.1,0-6
		c0-0.3-0.2-0.6-0.5-0.7C47.2,87.4,46.2,87.1,45,86.8z M37.7,84.1c0,2.1,0,3.8,0,5.6c0,0.3,0.2,0.6,0.5,0.7c0.9,0.5,1.9,0.8,3.1,1.3
		c0-2.1,0-3.9,0-5.7c0-0.3-0.3-0.7-0.6-0.8C39.8,84.8,38.9,84.5,37.7,84.1z M30.5,80.7c0,1.9,0,3.6,0,5.2c0,0.2,0.1,0.5,0.3,0.6
		c1,0.6,1.9,1.2,3.2,1.9c0-2.1,0-3.8,0-5.5c0-0.2-0.2-0.5-0.4-0.6C32.6,81.8,31.7,81.3,30.5,80.7z M162.2,84.1
		c0.1,0.1,0.3,0.2,0.4,0.3c1-0.9,2.5-1.6,2.9-2.7c0.5-1.4,0.1-3.2,0.1-5.1c-1.1,0.6-1.9,1.1-2.6,1.6c-0.3,0.2-0.8,0.6-0.8,0.9
		C162.1,80.7,162.2,82.4,162.2,84.1z M26.5,83.6c0.8-3.9-0.1-5.8-3.2-6.7C22.4,80.3,23.3,82,26.5,83.6z M172.8,71.4
		c-2.8,0.8-4.3,4-3.1,6.9C172,76.5,173.9,74.6,172.8,71.4z M19.1,77.6c0.7-3.4-0.4-5.3-3.2-6.3C15,74.3,17.4,75.6,19.1,77.6z
		 M180.3,63c-0.1-0.1-0.2-0.1-0.3-0.2c-1,1.3-2,2.5-2.8,3.9c-0.4,0.7-0.3,1.6-0.4,2.5c0.2,0,0.4,0.1,0.6,0.1
		C178.3,67.2,179.3,65.1,180.3,63z"/>
	<path class="st6" d="M94.4,87.4c-16-0.4-31.6-2.4-46.7-8c-8.2-3-15.8-7-22.2-13.1c-3.2-3.1-5.8-6.5-7.2-10.7
		c-2.6-7.8-0.4-14.6,4.7-20.7c5-6,11.5-10,18.5-13.3c14.4-6.6,29.7-9.4,45.5-10.1c17-0.8,33.8,0.9,50.1,6.2
		c8.4,2.8,16.4,6.4,23.4,12.1c3.2,2.6,6,5.5,8,9.2c4.6,8.3,3.6,16.2-2,23.6c-4.2,5.5-9.7,9.4-15.8,12.5
		c-11.9,6.2-24.6,9.4-37.8,10.9C106.8,86.7,100.6,86.9,94.4,87.4z M96.2,83.8c14.6-0.1,30.6-2.4,45.8-8.8
		c6.9-2.9,13.3-6.7,18.3-12.3c7.5-8.4,7.6-18.5,0.1-26.9c-2.8-3.2-6.2-5.9-9.8-8.1c-11.8-7.1-24.9-10.4-38.4-12.1
		C99.6,14,87,14.1,74.3,15.9C63,17.5,52,20.4,41.7,25.7c-5.4,2.8-10.4,6.3-14.3,11.2c-4,5.1-5.8,10.8-3.9,17.2
		c1.2,4.1,3.6,7.5,6.7,10.4c7,6.7,15.6,10.6,24.6,13.5C67.7,82.2,81,83.8,96.2,83.8z"/>
	<path class="st7" d="M71.2,49.5c0-7.3,0-14.5,0-21.8c0-1.2,0.3-1.6,1.6-1.6c6.4,0.1,12.8,0.1,19.2,0.3c3.1,0.1,6,0.7,8.5,2.8
		c2.7,2.3,3.9,5.3,4.1,8.8c0.2,3.3,0.2,6.6,0.2,9.9c0,3.9,0,7.7,0,11.6c0,1.1-0.3,1.5-1.4,1.5c-1.2-0.1-2.5-0.1-3.8,0
		C98.4,61,98,60.6,98,59.5c0-5.4,0-10.8,0-16.3c0-1.8,0-3.7-0.1-5.5c-0.2-3.1-1.3-4.4-4.4-4.6c-5-0.3-9.9-0.2-14.9-0.3
		c-0.3,0-0.7,0.5-0.8,0.9c-0.1,0.4,0,0.9,0,1.3c0,12,0,24,0,36c0,1.9,0,1.9-2,1.9c-1,0-2.1-0.1-3.1,0c-1.3,0.1-1.6-0.4-1.6-1.6
		C71.2,64.1,71.2,56.8,71.2,49.5z"/>
	<path class="st7" d="M84.4,72.6c0-0.9,0-1.4,0-1.9c0-10.1,0-20.1,0-30.2c0-1.3,0.4-1.8,1.7-1.6c1.2,0.1,2.5,0.1,3.8,0
		c0.9,0,1.3,0.3,1.2,1.2c0,0.8,0,1.5,0,2.3c0,7.3,0,14.6,0,21.9c0,1.1,0.3,1.5,1.4,1.5c4.6-0.1,9.3,0,14-0.3
		c3.6-0.2,4.7-1.4,4.8-5.1c0.1-5.2,0.1-10.5,0.1-15.7c0-5.6,0-11.3,0-16.9c0-1.2,0.3-1.6,1.5-1.5c1.1,0.1,2.2,0,3.4,0
		c1.8,0,1.8,0,1.8,1.7c0,9.6,0,19.2,0,28.7c0,0.9,0,1.9-0.1,2.8c-0.1,1.2-0.2,2.3-0.5,3.5c-1.1,5-4.2,8.3-9.3,8.8
		C100.3,72.3,92.5,72.3,84.4,72.6z"/>
</g>
<g id="Comprobar">
</g>
</svg>
