<?xml version="1.0" encoding="utf-8"?>
<!-- Generator: Adobe Illustrator 19.1.0, SVG Export Plug-In . SVG Version: 6.00 Build 0)  -->
<svg version="1.1" id="Capa_1" xmlns="http://www.w3.org/2000/svg" xmlns:xlink="http://www.w3.org/1999/xlink" x="0px" y="0px"
	 viewBox="0 0 113 67.6" style="enable-background:new 0 0 113 67.6;" xml:space="preserve">
<style type="text/css">
	.st0{fill:#1D3B5D;}
	.st1{fill:#072647;}
	.st2{fill:#4A996E;}
	.st3{fill:#2F7850;}
	.st4{fill:#F3E4D0;}
	.st5{fill:#FCBE24;}
	.st6{fill:#D08500;}
	.st7{fill:#FDDE6E;}
	.st8{fill:#FFFFFF;}
	.st9{fill:#187BC5;}
	.st10{fill:#05192B;}
	.st11{fill:#FFE7C5;}
	.st12{fill:#204F34;}
</style>
<g>
	<g>
		<path class="st2" d="M57.1,4.3c9.3,0,18.4,1.1,27.3,4.1c5.6,1.9,10.9,4.4,15.5,8.3c1.8,1.6,3.3,3.3,4.5,5.4
			c2.8,5.1,2.1,10-1.2,14.7c-2.4,3.3-5.7,5.7-9.2,7.7c-7,3.9-14.7,6-22.6,7.2c-9,1.3-18,1.4-27,0.2c-7.6-1-15-2.9-22-6.4
			c-4-2-7.7-4.4-10.5-8c-2.5-3.1-3.9-6.6-3.4-10.6c0.5-3.3,2.1-6.1,4.4-8.5c3.7-3.9,8.2-6.4,13.1-8.5C33.9,6.5,42.4,5,51.2,4.4
			c1-0.1,2-0.1,3-0.1C55.1,4.3,56.1,4.3,57.1,4.3z M57.1,50.7c3.6-0.3,7.2-0.4,10.8-0.8c7.7-0.9,15.1-2.8,22-6.4
			c3.5-1.8,6.7-4.1,9.2-7.3c3.3-4.3,3.9-8.9,1.2-13.7c-1.2-2.1-2.8-3.8-4.7-5.3c-4-3.3-8.7-5.5-13.6-7.1C72.6,7,62.8,6,52.9,6.5
			c-9.2,0.4-18.1,2-26.5,5.9c-4.1,1.9-7.9,4.2-10.8,7.7c-3,3.6-4.2,7.5-2.7,12.1c0.8,2.5,2.3,4.5,4.2,6.3c3.7,3.6,8.2,5.9,12.9,7.6
			C38.7,49.3,47.8,50.5,57.1,50.7z"/>
		<path class="st2" d="M77.3,52.6c0,1.3,0,2.5,0,3.6c0,0.2-0.4,0.5-0.7,0.5c-1.4,0.3-1.4,0.3-1.4-1.1c0-0.6,0.1-1.2,0-1.7
			c-0.1-0.8,0.2-1.1,1-1.2C76.5,52.8,76.8,52.7,77.3,52.6z"/>
		<path class="st2" d="M53.9,56.6c0-0.2,0-0.5,0-0.7c0-1.2,0.6-1.6,1.8-1.2c0.2,0.1,0.3,0.3,0.3,0.5c0,1,0,2,0,3
			c0,0.2-0.4,0.5-0.5,0.5c-1.9,0-1.5,0.2-1.5-1.4C53.9,57,53.9,56.8,53.9,56.6z"/>
		<path class="st2" d="M73,53.4c0,1.3,0,2.5,0,3.6c0,0.2-0.2,0.4-0.4,0.5C71.2,58,71,57.8,71,56.3c0-0.6,0-1.2,0-1.8
			c-0.1-0.6,0.2-0.9,0.8-0.9C72.1,53.6,72.5,53.5,73,53.4z"/>
		<path class="st2" d="M51.6,58.5c-0.5,0-1,0-1.4-0.1c-0.2,0-0.5-0.4-0.5-0.6c-0.1-1,0-2,0-3c0-0.4,0.2-0.5,0.6-0.5
			c1.6,0,1.6,0,1.6,1.5c0,0.8,0,1.6,0,2.3C51.7,58.3,51.7,58.4,51.6,58.5z"/>
		<path class="st2" d="M39,57c-0.7-0.1-1.3-0.2-1.8-0.4c-0.1,0-0.2-0.2-0.3-0.3c0-1.2,0-2.4,0-3.5c0.2-0.1,0.2-0.1,0.3-0.1
			c1.8,0.2,1.8,0.2,1.8,2.1C39,55.5,39,56.2,39,57z"/>
		<path class="st2" d="M34.7,56.1c-0.7-0.2-1.2-0.3-1.7-0.4c-0.2-0.1-0.4-0.3-0.4-0.4c0-1.2,0-2.3,0-3.6c0.7,0.2,1.2,0.3,1.8,0.4
			c0.1,0,0.3,0.3,0.3,0.4C34.7,53.6,34.7,54.8,34.7,56.1z"/>
		<path class="st2" d="M90.1,48.8c0,1.3,0,2.4,0,3.4c0,0.2-0.1,0.4-0.2,0.4c-0.5,0.3-1.1,0.5-1.8,0.8c0-1.3,0-2.5,0-3.6
			c0-0.1,0.2-0.3,0.3-0.4C88.9,49.2,89.4,49,90.1,48.8z"/>
		<path class="st2" d="M60.3,56.7c0,0.2,0,0.4,0,0.6c0,1.4-0.3,1.6-1.7,1.4c-0.2,0-0.4-0.3-0.4-0.5c0-1-0.1-2,0-3
			c0-0.2,0.3-0.5,0.5-0.5c1.5-0.2,1.6-0.2,1.6,1.4C60.3,56.2,60.3,56.5,60.3,56.7z"/>
		<path class="st2" d="M68.8,54c0,1.3,0,2.5,0,3.7c0,0.1-0.2,0.3-0.4,0.4c-0.2,0.1-0.5,0.1-0.7,0.1c-0.7,0.2-1.1,0-1-0.9
			c0.1-0.7,0-1.5,0-2.3c0-0.6,0.1-1,0.8-1C67.9,54.1,68.3,54.1,68.8,54z"/>
		<path class="st2" d="M45.4,54.1c0.2-0.1,0.2-0.1,0.3-0.1c2.2,0.2,1.7-0.2,1.8,1.8c0,0.6,0,1.2,0,1.8c0,0.4-0.1,0.6-0.6,0.5
			c0,0-0.1,0-0.1,0c-1.4-0.1-1.4-0.1-1.4-1.5C45.4,55.8,45.4,55,45.4,54.1z"/>
		<path class="st2" d="M64.4,58.4c-2,0.4-2,0.4-2-1.6c0-0.5,0-1.1,0-1.6c0-0.5,0.1-0.7,0.6-0.7c1.7-0.1,1.5-0.3,1.5,1.3
			c0,0.8,0,1.6,0,2.3C64.5,58.2,64.5,58.3,64.4,58.4z"/>
		<path class="st2" d="M81.6,51.6c0,1.3,0,2.5,0,3.6c0,0.2-0.2,0.4-0.3,0.5c-0.5,0.2-1.1,0.3-1.8,0.5c0-1.3,0-2.6,0-3.8
			c0-0.1,0.2-0.3,0.4-0.4C80.4,51.9,80.9,51.8,81.6,51.6z"/>
		<path class="st2" d="M43.2,57.6c-2.1,0-2.1,0-2.1-1.9c0-0.7,0-1.5,0-2.3c0.7,0.1,1.2,0.1,1.7,0.3c0.1,0,0.3,0.3,0.4,0.4
			c0.1,0.1,0,0.3,0,0.5C43.2,55.6,43.2,56.6,43.2,57.6z"/>
		<path class="st2" d="M85.8,50.3c0,1.3,0,2.5,0,3.7c0,0.1-0.1,0.3-0.3,0.3c-0.5,0.2-1.1,0.4-1.8,0.6c0-1.3,0-2.5,0-3.7
			c0-0.1,0.2-0.3,0.3-0.4C84.6,50.7,85.2,50.5,85.8,50.3z"/>
		<path class="st2" d="M92.3,51.6c0-1.3,0-2.4,0-3.5c0-0.1,0.2-0.3,0.3-0.4c0.5-0.3,1-0.5,1.7-0.8c0,1.2,0,2.3,0,3.3
			c0,0.2-0.3,0.4-0.5,0.5C93.4,51,92.9,51.2,92.3,51.6z"/>
		<path class="st2" d="M28.4,50.3c0.7,0.2,1.3,0.4,1.8,0.6c0.1,0,0.3,0.3,0.3,0.4c0,1.1,0,2.2,0,3.5c-0.7-0.3-1.3-0.4-1.9-0.7
			c-0.1,0-0.2-0.2-0.2-0.4C28.4,52.7,28.4,51.6,28.4,50.3z"/>
		<path class="st2" d="M24.1,48.8c0.7,0.3,1.2,0.4,1.7,0.7c0.2,0.1,0.3,0.3,0.3,0.5c0,1.1,0,2.1,0,3.3c-0.7-0.3-1.3-0.5-1.8-0.8
			c-0.1-0.1-0.3-0.3-0.3-0.4C24.1,51,24.1,50,24.1,48.8z"/>
		<path class="st2" d="M19.9,46.8c0.7,0.4,1.3,0.6,1.8,0.9c0.1,0.1,0.2,0.2,0.2,0.4c0,1,0,2,0,3.2c-0.7-0.4-1.3-0.8-1.9-1.1
			c-0.1-0.1-0.2-0.2-0.2-0.3C19.9,48.9,19.9,47.9,19.9,46.8z"/>
		<path class="st2" d="M96.6,48.8c0-1,0-1.9,0-2.9c0-0.2,0.3-0.4,0.5-0.5c0.4-0.3,0.9-0.6,1.5-0.9c0,1.1,0.2,2.1-0.1,3
			c-0.2,0.6-1.1,1.1-1.7,1.6C96.7,48.9,96.7,48.8,96.6,48.8z"/>
		<path class="st2" d="M17.6,48.5c-1.9-0.9-2.4-1.9-1.9-3.9C17.5,45.1,18.1,46.2,17.6,48.5z"/>
		<path class="st2" d="M102.8,41.4c0.6,1.9-0.5,3-1.8,4C100.3,43.7,101.2,41.8,102.8,41.4z"/>
		<path class="st2" d="M13.3,45c-1-1.1-2.4-1.9-1.9-3.6C13.1,41.9,13.7,43,13.3,45z"/>
		<path class="st2" d="M107.1,36.5c-0.6,1.2-1.2,2.4-1.8,3.7c-0.1,0-0.2,0-0.3-0.1c0.1-0.5,0-1,0.2-1.4c0.5-0.8,1.1-1.5,1.7-2.2
			C107,36.4,107.1,36.4,107.1,36.5z"/>
		<path class="st2" d="M58.2,48.6c-8.9,0-16.6-1-24.1-3.4c-5.3-1.7-10.3-4-14.3-7.9c-1.8-1.7-3.2-3.7-3.9-6.1
			c-1.1-3.8-0.1-7.1,2.3-10c2.2-2.8,5.1-4.9,8.3-6.5c6-3.1,12.4-4.8,19-5.7c7.3-1,14.7-1.1,22.1-0.2c7.9,1,15.5,2.9,22.4,7
			c2.1,1.3,4.1,2.8,5.7,4.7c4.3,4.9,4.3,10.8-0.1,15.7c-3,3.3-6.7,5.5-10.7,7.2C76,47.3,66.7,48.5,58.2,48.6z M43.6,28.6
			c0,4.3,0,8.5,0,12.8c0,0.7,0.2,1,0.9,0.9c0.6-0.1,1.2,0,1.8,0c1.2,0,1.2,0,1.2-1.1c0-7,0-14,0-21c0-0.3-0.1-0.5,0-0.8
			c0.1-0.2,0.3-0.5,0.5-0.5c2.9,0,5.8,0,8.7,0.2c1.8,0.1,2.4,0.9,2.5,2.7c0.1,1.1,0.1,2.1,0.1,3.2c0,3.2,0,6.3,0,9.5
			c0,0.6,0.2,0.9,0.9,0.8c0.7,0,1.5,0,2.2,0c0.7,0,0.9-0.2,0.8-0.9c0-2.2,0-4.5,0-6.7c0-1.9,0-3.9-0.1-5.8c-0.1-2-0.8-3.8-2.4-5.1
			c-1.4-1.2-3.2-1.6-5-1.6c-3.7-0.1-7.5-0.1-11.2-0.1c-0.7,0-0.9,0.2-0.9,0.9C43.6,20.2,43.6,24.4,43.6,28.6z M51.3,42.1
			c4.7-0.2,9.3-0.1,13.8-0.5c2.9-0.2,4.7-2.2,5.4-5.1c0.2-0.7,0.2-1.3,0.3-2c0-0.5,0-1.1,0-1.6c0-5.6,0-11.2,0-16.7c0-1,0-1-1-1
			c-0.7,0-1.3,0-2,0c-0.7-0.1-0.9,0.2-0.9,0.9c0,3.3,0,6.6,0,9.9c0,3,0,6.1-0.1,9.1c-0.1,2.1-0.7,2.9-2.8,3
			c-2.7,0.2-5.4,0.1-8.1,0.2c-0.7,0-0.8-0.2-0.8-0.9c0-4.2,0-8.5,0-12.7c0-0.4,0-0.9,0-1.3c0-0.5-0.2-0.7-0.7-0.7
			c-0.7,0-1.5,0.1-2.2,0c-0.8-0.1-1,0.2-1,1c0,5.9,0,11.7,0,17.6C51.3,41.3,51.3,41.5,51.3,42.1z"/>
	</g>
	<g>
		<path class="st3" d="M56.5,60.8c-9.1-0.1-18.1-1-26.8-3.7c-5.6-1.7-10.8-4-15.5-7.7C9,45.3,5.5,40.2,5,33.5
			c-0.2-2.4-0.2-4.8,0.1-7.2c0.6-4.3,3.1-7.6,6.2-10.4c4.7-4.3,10.2-7,16.2-9c11.8-4,24.1-5.2,36.5-4.4C72,3,80,4.4,87.6,7.2
			c5.6,2,10.8,4.6,15.2,8.6c3.1,2.8,5.6,6.1,6.2,10.3c0.9,5.4,0.5,10.7-2,15.6c-1.7,3.4-4.4,6.1-7.4,8.3c-5.5,4-11.7,6.4-18.2,8
			C73.2,60.1,64.9,60.8,56.5,60.8z M57.1,4.3c-1,0-2,0-3,0c-1,0-2,0.1-3,0.1C42.4,5,33.9,6.5,25.8,9.9c-4.9,2-9.4,4.6-13.1,8.5
			c-2.3,2.4-3.9,5.2-4.4,8.5c-0.6,4.1,0.9,7.5,3.4,10.6c2.8,3.5,6.5,6,10.5,8c6.9,3.5,14.3,5.4,22,6.4c9,1.2,18,1.2,27-0.2
			c7.9-1.2,15.6-3.3,22.6-7.2c3.6-2,6.8-4.4,9.2-7.7c3.4-4.6,4-9.5,1.2-14.7c-1.1-2.1-2.7-3.8-4.5-5.4c-4.5-4-9.8-6.5-15.5-8.3
			C75.5,5.4,66.4,4.3,57.1,4.3z M77.3,52.6c-0.5,0.1-0.8,0.2-1.1,0.2c-0.8,0-1.1,0.4-1,1.2c0.1,0.6,0,1.1,0,1.7c0,1.4,0,1.4,1.4,1.1
			c0.3-0.1,0.7-0.3,0.7-0.5C77.3,55.1,77.3,53.9,77.3,52.6z M53.9,56.6c0,0.2,0,0.4,0,0.6c0,1.6-0.3,1.4,1.5,1.4
			c0.2,0,0.5-0.3,0.5-0.5c0.1-1,0-2,0-3c0-0.2-0.2-0.5-0.3-0.5c-1.2-0.4-1.8,0-1.8,1.2C53.9,56.1,53.9,56.4,53.9,56.6z M73,53.4
			c-0.5,0.1-0.9,0.1-1.3,0.2c-0.6,0-0.9,0.3-0.8,0.9c0,0.6,0,1.2,0,1.8c0,1.5,0.2,1.7,1.7,1.2c0.2-0.1,0.4-0.3,0.4-0.5
			C73.1,55.9,73,54.7,73,53.4z M51.6,58.5c0.1-0.1,0.1-0.2,0.1-0.3c0-0.8,0-1.6,0-2.3c0-1.5,0-1.5-1.6-1.5c-0.4,0-0.6,0.1-0.6,0.5
			c0,1,0,2,0,3c0,0.2,0.3,0.5,0.5,0.6C50.6,58.5,51.1,58.5,51.6,58.5z M39,57c0-0.8,0-1.5,0-2.2c0-1.9,0-1.9-1.8-2.1
			c0,0-0.1,0-0.3,0.1c0,1.1,0,2.3,0,3.5c0,0.1,0.1,0.3,0.3,0.3C37.7,56.8,38.3,56.9,39,57z M34.7,56.1c0-1.3,0-2.4,0-3.6
			c0-0.2-0.2-0.4-0.3-0.4c-0.5-0.2-1.1-0.3-1.8-0.4c0,1.3,0,2.4,0,3.6c0,0.1,0.2,0.4,0.4,0.4C33.5,55.8,34,55.9,34.7,56.1z
			 M90.1,48.8c-0.7,0.3-1.2,0.4-1.8,0.7c-0.1,0.1-0.3,0.3-0.3,0.4c0,1.2,0,2.3,0,3.6c0.7-0.3,1.3-0.5,1.8-0.8
			c0.1-0.1,0.2-0.3,0.2-0.4C90.1,51.1,90.1,50,90.1,48.8z M60.3,56.7c0-0.2,0-0.4,0-0.6c0-1.6,0-1.6-1.6-1.4c-0.2,0-0.5,0.3-0.5,0.5
			c-0.1,1,0,2,0,3c0,0.2,0.2,0.5,0.4,0.5c1.4,0.3,1.7,0,1.7-1.4C60.3,57.1,60.3,56.9,60.3,56.7z M68.8,54c-0.5,0-0.9,0.1-1.3,0.1
			c-0.7,0-0.9,0.3-0.8,1c0,0.8,0.1,1.5,0,2.3c-0.1,0.8,0.3,1,1,0.9c0.2,0,0.5,0,0.7-0.1c0.2-0.1,0.4-0.2,0.4-0.4
			C68.8,56.5,68.8,55.3,68.8,54z M45.4,54.1c0,0.9,0,1.7,0,2.6c0,1.4,0,1.4,1.4,1.5c0,0,0.1,0,0.1,0c0.4,0.1,0.6-0.1,0.6-0.5
			c0-0.6,0-1.2,0-1.8c0-2,0.4-1.6-1.8-1.8C45.6,54,45.6,54.1,45.4,54.1z M64.4,58.4c0-0.1,0.1-0.1,0.1-0.2c0-0.8,0-1.6,0-2.3
			c0-1.6,0.3-1.4-1.5-1.3c-0.5,0-0.6,0.2-0.6,0.7c0,0.5,0,1.1,0,1.6C62.4,58.8,62.4,58.8,64.4,58.4z M81.6,51.6
			c-0.6,0.2-1.2,0.3-1.6,0.4c-0.2,0.1-0.4,0.2-0.4,0.4c0,1.2,0,2.4,0,3.8c0.7-0.2,1.2-0.3,1.8-0.5c0.1,0,0.3-0.3,0.3-0.5
			C81.6,54.1,81.6,52.9,81.6,51.6z M43.2,57.6c0-1.1,0-2.1,0-3.1c0-0.2,0-0.3,0-0.5c-0.1-0.2-0.2-0.4-0.4-0.4
			c-0.5-0.1-1.1-0.2-1.7-0.3c0,0.9,0,1.6,0,2.3C41.1,57.7,41.2,57.7,43.2,57.6z M85.8,50.3c-0.7,0.2-1.2,0.4-1.7,0.6
			c-0.1,0.1-0.3,0.2-0.3,0.4c0,1.2,0,2.4,0,3.7c0.7-0.2,1.3-0.4,1.8-0.6c0.1,0,0.3-0.2,0.3-0.3C85.8,52.8,85.8,51.7,85.8,50.3z
			 M92.3,51.6c0.6-0.3,1.1-0.6,1.6-0.9c0.2-0.1,0.5-0.3,0.5-0.5c0-1.1,0-2.1,0-3.3c-0.7,0.3-1.2,0.6-1.7,0.8
			c-0.1,0.1-0.3,0.3-0.3,0.4C92.3,49.2,92.3,50.3,92.3,51.6z M28.4,50.3c0,1.2,0,2.4,0,3.5c0,0.1,0.1,0.3,0.2,0.4
			c0.6,0.2,1.1,0.4,1.9,0.7c0-1.3,0-2.4,0-3.5c0-0.1-0.1-0.4-0.3-0.4C29.6,50.7,29,50.6,28.4,50.3z M24.1,48.8c0,1.2,0,2.2,0,3.3
			c0,0.1,0.1,0.4,0.3,0.4c0.5,0.3,1.1,0.5,1.8,0.8c0-1.2,0-2.3,0-3.3c0-0.2-0.2-0.4-0.3-0.5C25.3,49.2,24.8,49,24.1,48.8z
			 M19.9,46.8c0,1.1,0,2.1,0,3c0,0.1,0.1,0.3,0.2,0.3c0.6,0.4,1.1,0.7,1.9,1.1c0-1.2,0-2.2,0-3.2c0-0.1-0.1-0.3-0.2-0.4
			C21.1,47.4,20.6,47.2,19.9,46.8z M96.6,48.8c0.1,0,0.2,0.1,0.3,0.1c0.6-0.5,1.5-0.9,1.7-1.6c0.3-0.8,0.1-1.9,0.1-3
			c-0.6,0.4-1.1,0.6-1.5,0.9c-0.2,0.1-0.5,0.4-0.5,0.5C96.5,46.8,96.6,47.8,96.6,48.8z M17.6,48.5c0.5-2.3-0.1-3.4-1.9-3.9
			C15.2,46.6,15.7,47.6,17.6,48.5z M102.8,41.4c-1.6,0.5-2.5,2.3-1.8,4C102.3,44.4,103.4,43.3,102.8,41.4z M13.3,45
			c0.4-2-0.2-3.1-1.9-3.6C10.9,43.1,12.3,43.8,13.3,45z M107.1,36.5c-0.1,0-0.1-0.1-0.2-0.1c-0.6,0.7-1.2,1.4-1.7,2.2
			c-0.2,0.4-0.2,1-0.2,1.4c0.1,0,0.2,0,0.3,0.1C105.9,38.9,106.5,37.7,107.1,36.5z"/>
		<path class="st3" d="M57.1,50.7c-9.3-0.2-18.4-1.4-27.2-4.7c-4.7-1.8-9.2-4.1-12.9-7.6c-1.8-1.8-3.4-3.8-4.2-6.3
			c-1.5-4.6-0.2-8.5,2.7-12.1c2.9-3.5,6.7-5.8,10.8-7.7c8.4-3.8,17.3-5.5,26.5-5.9C62.8,6,72.6,7,82,10.1c4.9,1.6,9.6,3.8,13.6,7.1
			c1.8,1.5,3.5,3.2,4.7,5.3c2.7,4.8,2.1,9.4-1.2,13.7c-2.4,3.2-5.7,5.4-9.2,7.3c-6.9,3.6-14.3,5.5-22,6.4
			C64.3,50.3,60.7,50.4,57.1,50.7z M58.2,48.6c8.5-0.1,17.8-1.4,26.6-5.1c4-1.7,7.7-3.9,10.7-7.2c4.4-4.9,4.4-10.8,0.1-15.7
			c-1.7-1.9-3.6-3.4-5.7-4.7c-6.9-4.1-14.5-6-22.4-7C60.1,8,52.8,8.1,45.4,9.1c-6.6,0.9-13,2.6-19,5.7c-3.2,1.6-6.1,3.7-8.3,6.5
			c-2.3,3-3.4,6.3-2.3,10c0.7,2.4,2.1,4.4,3.9,6.1c4.1,3.9,9.1,6.2,14.3,7.9C41.6,47.7,49.3,48.6,58.2,48.6z"/>
		<path class="st3" d="M43.6,28.6c0-4.2,0-8.4,0-12.7c0-0.7,0.2-0.9,0.9-0.9c3.7,0.1,7.5,0.1,11.2,0.1c1.8,0,3.5,0.4,5,1.6
			c1.6,1.3,2.3,3.1,2.4,5.1c0.1,1.9,0.1,3.9,0.1,5.8c0,2.2,0,4.5,0,6.7c0,0.6-0.2,0.9-0.8,0.9c-0.7,0-1.5,0-2.2,0
			c-0.6,0-0.9-0.2-0.9-0.8c0-3.2,0-6.3,0-9.5c0-1.1,0-2.1-0.1-3.2c-0.1-1.8-0.7-2.6-2.5-2.7C53.7,19,50.8,19,47.9,19
			c-0.2,0-0.4,0.3-0.5,0.5c-0.1,0.2,0,0.5,0,0.8c0,7,0,14,0,21c0,1.1,0,1.1-1.2,1.1c-0.6,0-1.2,0-1.8,0c-0.8,0.1-0.9-0.3-0.9-0.9
			C43.6,37.1,43.6,32.9,43.6,28.6z"/>
		<path class="st3" d="M51.3,42.1c0-0.5,0-0.8,0-1.1c0-5.9,0-11.7,0-17.6c0-0.8,0.2-1,1-1c0.7,0.1,1.5,0,2.2,0
			c0.6,0,0.8,0.2,0.7,0.7c0,0.4,0,0.9,0,1.3c0,4.2,0,8.5,0,12.7c0,0.6,0.2,0.9,0.8,0.9c2.7-0.1,5.4,0,8.1-0.2c2.1-0.1,2.7-0.8,2.8-3
			c0.1-3,0.1-6.1,0.1-9.1c0-3.3,0-6.6,0-9.9c0-0.7,0.2-0.9,0.9-0.9c0.6,0.1,1.3,0,2,0c1,0,1,0,1,1c0,5.6,0,11.2,0,16.7
			c0,0.5,0,1.1,0,1.6c-0.1,0.7-0.1,1.4-0.3,2c-0.7,2.9-2.5,4.9-5.4,5.1C60.5,41.9,56,41.9,51.3,42.1z"/>
	</g>
</g>
<g id="Comprobar">
</g>
</svg>
