<?xml version="1.0" encoding="utf-8"?>
<!-- Generator: Adobe Illustrator 19.1.0, SVG Export Plug-In . SVG Version: 6.00 Build 0)  -->
<svg version="1.1" id="Capa_1" xmlns="http://www.w3.org/2000/svg" xmlns:xlink="http://www.w3.org/1999/xlink" x="0px" y="0px"
	 viewBox="0 0 113 67.6" style="enable-background:new 0 0 113 67.6;" xml:space="preserve">
<style type="text/css">
	.st0{fill:#1D3B5D;}
	.st1{fill:#072647;}
	.st2{fill:#4A996E;}
	.st3{fill:#2F7850;}
	.st4{fill:#F3E4D0;}
	.st5{fill:#FCBE24;}
	.st6{fill:#D08500;}
	.st7{fill:#FDDE6E;}
	.st8{fill:#FFFFFF;}
	.st9{fill:#187BC5;}
	.st10{fill:#05192B;}
	.st11{fill:#FFE7C5;}
	.st12{fill:#204F34;}
</style>
<g>
	<g>
		<path class="st0" d="M57.1,8.4c9.3,0,18.4,1.1,27.3,4.1c5.6,1.9,10.9,4.4,15.5,8.3c1.8,1.6,3.3,3.3,4.5,5.4
			c2.8,5.1,2.1,10-1.2,14.7c-2.4,3.3-5.7,5.7-9.2,7.7c-7,3.9-14.7,6-22.6,7.2c-9,1.3-18,1.4-27,0.2c-7.6-1-15-2.9-22-6.4
			c-4-2-7.7-4.4-10.5-8C9.2,38.5,7.8,35,8.3,30.9c0.5-3.3,2.1-6.1,4.4-8.5c3.7-3.9,8.2-6.4,13.1-8.5c8.1-3.3,16.6-4.9,25.3-5.4
			c1-0.1,2-0.1,3-0.1C55.1,8.4,56.1,8.4,57.1,8.4z M57.1,54.8c3.6-0.3,7.2-0.4,10.8-0.8c7.7-0.9,15.1-2.8,22-6.4
			c3.5-1.8,6.7-4.1,9.2-7.3c3.3-4.3,3.9-8.9,1.2-13.7c-1.2-2.1-2.8-3.8-4.7-5.3c-4-3.3-8.7-5.5-13.6-7.1c-9.5-3.1-19.3-4.1-29.2-3.6
			c-9.2,0.4-18.1,2-26.5,5.9c-4.1,1.9-7.9,4.2-10.8,7.7c-3,3.6-4.2,7.5-2.7,12.1c0.8,2.5,2.3,4.5,4.2,6.3c3.7,3.6,8.2,5.9,12.9,7.6
			C38.7,53.4,47.8,54.6,57.1,54.8z"/>
		<path class="st0" d="M77.3,56.8c0,1.3,0,2.5,0,3.6c0,0.2-0.4,0.5-0.7,0.5c-1.4,0.3-1.4,0.3-1.4-1.1c0-0.6,0.1-1.2,0-1.7
			c-0.1-0.8,0.2-1.1,1-1.2C76.5,56.9,76.9,56.9,77.3,56.8z"/>
		<path class="st0" d="M53.9,60.7c0-0.2,0-0.5,0-0.7c0-1.2,0.6-1.6,1.8-1.2c0.2,0.1,0.3,0.3,0.3,0.5c0,1,0,2,0,3
			c0,0.2-0.4,0.5-0.5,0.5c-1.9,0-1.5,0.2-1.5-1.4C53.9,61.2,53.9,60.9,53.9,60.7z"/>
		<path class="st0" d="M73.1,57.6c0,1.3,0,2.5,0,3.6c0,0.2-0.2,0.4-0.4,0.5C71.2,62.2,71,62,71,60.5c0-0.6,0-1.2,0-1.8
			c-0.1-0.6,0.2-0.9,0.8-0.9C72.2,57.7,72.5,57.6,73.1,57.6z"/>
		<path class="st0" d="M51.6,62.7c-0.5,0-1,0-1.4-0.1c-0.2,0-0.5-0.4-0.5-0.6c-0.1-1,0-2,0-3c0-0.4,0.2-0.5,0.6-0.5
			c1.6,0,1.6,0,1.6,1.5c0,0.8,0,1.6,0,2.3C51.7,62.5,51.7,62.5,51.6,62.7z"/>
		<path class="st0" d="M39,61.2c-0.7-0.1-1.3-0.2-1.8-0.4c-0.1,0-0.2-0.2-0.3-0.3c0-1.2,0-2.4,0-3.5c0.2-0.1,0.2-0.1,0.3-0.1
			c1.8,0.2,1.8,0.2,1.8,2.1C39,59.6,39,60.3,39,61.2z"/>
		<path class="st0" d="M34.7,60.2c-0.7-0.2-1.2-0.3-1.7-0.4c-0.2-0.1-0.4-0.3-0.4-0.4c0-1.2,0-2.3,0-3.6c0.7,0.2,1.2,0.3,1.8,0.4
			c0.1,0,0.3,0.3,0.3,0.4C34.7,57.8,34.7,58.9,34.7,60.2z"/>
		<path class="st0" d="M90.1,52.9c0,1.3,0,2.4,0,3.4c0,0.2-0.1,0.4-0.2,0.4c-0.5,0.3-1.1,0.5-1.8,0.8c0-1.3,0-2.5,0-3.6
			c0-0.1,0.2-0.3,0.3-0.4C88.9,53.4,89.4,53.2,90.1,52.9z"/>
		<path class="st0" d="M60.3,60.8c0,0.2,0,0.4,0,0.6c0,1.4-0.3,1.6-1.7,1.4c-0.2,0-0.4-0.3-0.4-0.5c0-1-0.1-2,0-3
			c0-0.2,0.3-0.5,0.5-0.5c1.5-0.2,1.6-0.2,1.6,1.4C60.3,60.4,60.3,60.6,60.3,60.8z"/>
		<path class="st0" d="M68.8,58.2c0,1.3,0,2.5,0,3.7c0,0.1-0.2,0.3-0.4,0.4c-0.2,0.1-0.5,0.1-0.7,0.1c-0.7,0.2-1.1,0-1-0.9
			c0.1-0.7,0-1.5,0-2.3c0-0.6,0.1-1,0.8-1C67.9,58.3,68.3,58.2,68.8,58.2z"/>
		<path class="st0" d="M45.4,58.3c0.2-0.1,0.2-0.1,0.3-0.1c2.2,0.2,1.7-0.2,1.8,1.8c0,0.6,0,1.2,0,1.8c0,0.4-0.1,0.6-0.6,0.5
			c0,0-0.1,0-0.1,0c-1.4-0.1-1.4-0.1-1.4-1.5C45.4,60,45.4,59.1,45.4,58.3z"/>
		<path class="st0" d="M64.5,62.5c-2,0.4-2,0.4-2-1.6c0-0.5,0-1.1,0-1.6c0-0.5,0.1-0.7,0.6-0.7c1.7-0.1,1.5-0.3,1.5,1.3
			c0,0.8,0,1.6,0,2.3C64.5,62.4,64.5,62.4,64.5,62.5z"/>
		<path class="st0" d="M81.6,55.8c0,1.3,0,2.5,0,3.6c0,0.2-0.2,0.4-0.3,0.5c-0.5,0.2-1.1,0.3-1.8,0.5c0-1.3,0-2.6,0-3.8
			c0-0.1,0.2-0.3,0.4-0.4C80.4,56,81,55.9,81.6,55.8z"/>
		<path class="st0" d="M43.3,61.8c-2.1,0-2.1,0-2.1-1.9c0-0.7,0-1.5,0-2.3c0.7,0.1,1.2,0.1,1.7,0.3c0.1,0,0.3,0.3,0.4,0.4
			c0.1,0.1,0,0.3,0,0.5C43.3,59.7,43.3,60.7,43.3,61.8z"/>
		<path class="st0" d="M85.8,54.5c0,1.3,0,2.5,0,3.7c0,0.1-0.1,0.3-0.3,0.3c-0.5,0.2-1.1,0.4-1.8,0.6c0-1.3,0-2.5,0-3.7
			c0-0.1,0.2-0.3,0.3-0.4C84.6,54.8,85.2,54.7,85.8,54.5z"/>
		<path class="st0" d="M92.3,55.7c0-1.3,0-2.4,0-3.5c0-0.1,0.2-0.3,0.3-0.4c0.5-0.3,1-0.5,1.7-0.8c0,1.2,0,2.3,0,3.3
			c0,0.2-0.3,0.4-0.5,0.5C93.4,55.1,92.9,55.4,92.3,55.7z"/>
		<path class="st0" d="M28.4,54.5c0.7,0.2,1.3,0.4,1.8,0.6c0.1,0,0.3,0.3,0.3,0.4c0,1.1,0,2.2,0,3.5c-0.7-0.3-1.3-0.4-1.9-0.7
			c-0.1,0-0.2-0.2-0.2-0.4C28.4,56.8,28.4,55.7,28.4,54.5z"/>
		<path class="st0" d="M24.1,52.9c0.7,0.3,1.2,0.4,1.7,0.7c0.2,0.1,0.3,0.3,0.3,0.5c0,1.1,0,2.1,0,3.3c-0.7-0.3-1.3-0.5-1.8-0.8
			c-0.1-0.1-0.3-0.3-0.3-0.4C24.1,55.2,24.1,54.1,24.1,52.9z"/>
		<path class="st0" d="M19.9,51c0.7,0.4,1.3,0.6,1.8,0.9c0.1,0.1,0.2,0.2,0.2,0.4c0,1,0,2,0,3.2c-0.7-0.4-1.3-0.8-1.9-1.1
			c-0.1-0.1-0.2-0.2-0.2-0.3C19.9,53,19.9,52.1,19.9,51z"/>
		<path class="st0" d="M96.6,52.9c0-1,0-1.9,0-2.9c0-0.2,0.3-0.4,0.5-0.5c0.4-0.3,0.9-0.6,1.5-0.9c0,1.1,0.2,2.1-0.1,3
			c-0.2,0.6-1.1,1.1-1.7,1.6C96.8,53,96.7,53,96.6,52.9z"/>
		<path class="st0" d="M17.6,52.6c-1.9-0.9-2.4-1.9-1.9-3.9C17.5,49.2,18.1,50.3,17.6,52.6z"/>
		<path class="st0" d="M102.8,45.5c0.6,1.9-0.5,3-1.8,4C100.3,47.9,101.2,46,102.8,45.5z"/>
		<path class="st0" d="M13.3,49.1c-1-1.1-2.4-1.9-1.9-3.6C13.1,46,13.7,47.2,13.3,49.1z"/>
		<path class="st0" d="M107.1,40.6c-0.6,1.2-1.2,2.4-1.8,3.7c-0.1,0-0.2,0-0.3-0.1c0.1-0.5,0-1,0.2-1.4c0.5-0.8,1.1-1.5,1.7-2.2
			C107,40.6,107.1,40.6,107.1,40.6z"/>
		<path class="st0" d="M58.2,52.8c-8.9,0-16.6-1-24.1-3.4c-5.3-1.7-10.3-4-14.3-7.9c-1.8-1.7-3.2-3.7-3.9-6.1
			c-1.1-3.8-0.1-7.1,2.3-10c2.2-2.8,5.1-4.9,8.3-6.5c6-3.1,12.4-4.8,19-5.7c7.3-1,14.7-1.1,22.1-0.2c7.9,1,15.5,2.9,22.4,7
			c2.1,1.3,4.1,2.8,5.7,4.7c4.3,4.9,4.3,10.8-0.1,15.7c-3,3.3-6.7,5.5-10.7,7.2C76,51.4,66.7,52.7,58.2,52.8z M43.6,32.8
			c0,4.3,0,8.5,0,12.8c0,0.7,0.2,1,0.9,0.9c0.6-0.1,1.2,0,1.8,0c1.2,0,1.2,0,1.2-1.1c0-7,0-14,0-21c0-0.3-0.1-0.5,0-0.8
			c0.1-0.2,0.3-0.5,0.5-0.5c2.9,0,5.8,0,8.7,0.2c1.8,0.1,2.4,0.9,2.5,2.7c0.1,1.1,0.1,2.1,0.1,3.2c0,3.2,0,6.3,0,9.5
			c0,0.6,0.2,0.9,0.9,0.8c0.7,0,1.5,0,2.2,0c0.7,0,0.9-0.2,0.8-0.9c0-2.2,0-4.5,0-6.7c0-1.9,0-3.9-0.1-5.8c-0.1-2-0.8-3.8-2.4-5.1
			c-1.4-1.2-3.2-1.6-5-1.6c-3.7-0.1-7.5-0.1-11.2-0.1c-0.7,0-0.9,0.2-0.9,0.9C43.6,24.3,43.6,28.6,43.6,32.8z M51.3,46.2
			c4.7-0.2,9.3-0.1,13.8-0.5c2.9-0.2,4.7-2.2,5.4-5.1c0.2-0.7,0.2-1.3,0.3-2c0-0.5,0-1.1,0-1.6c0-5.6,0-11.2,0-16.7c0-1,0-1-1-1
			c-0.7,0-1.3,0-2,0c-0.7-0.1-0.9,0.2-0.9,0.9c0,3.3,0,6.6,0,9.9c0,3,0,6.1-0.1,9.1c-0.1,2.1-0.7,2.9-2.8,3
			c-2.7,0.2-5.4,0.1-8.1,0.2c-0.7,0-0.8-0.2-0.8-0.9c0-4.2,0-8.5,0-12.7c0-0.4,0-0.9,0-1.3c0-0.5-0.2-0.7-0.7-0.7
			c-0.7,0-1.5,0.1-2.2,0c-0.8-0.1-1,0.2-1,1c0,5.9,0,11.7,0,17.6C51.3,45.4,51.3,45.7,51.3,46.2z"/>
	</g>
	<g>
		<path class="st1" d="M56.5,64.9c-9.1-0.1-18.1-1-26.8-3.7c-5.6-1.7-10.8-4-15.5-7.7c-5.2-4.1-8.7-9.2-9.2-16
			c-0.2-2.4-0.2-4.8,0.1-7.2c0.6-4.3,3.1-7.6,6.2-10.4c4.7-4.3,10.2-7,16.2-9c11.8-4,24.1-5.2,36.5-4.4c8.1,0.5,16,1.9,23.7,4.7
			c5.6,2,10.8,4.6,15.2,8.6c3.1,2.8,5.6,6.1,6.2,10.3c0.9,5.4,0.5,10.7-2,15.6c-1.7,3.4-4.4,6.1-7.4,8.3c-5.5,4-11.7,6.4-18.2,8
			C73.3,64.2,64.9,65,56.5,64.9z M57.1,8.4c-1,0-2,0-3,0c-1,0-2,0.1-3,0.1c-8.7,0.5-17.2,2.1-25.3,5.4c-4.9,2-9.4,4.6-13.1,8.5
			c-2.3,2.4-3.9,5.2-4.4,8.5c-0.6,4.1,0.9,7.5,3.4,10.6c2.8,3.5,6.5,6,10.5,8c6.9,3.5,14.3,5.4,22,6.4c9,1.2,18,1.2,27-0.2
			c7.9-1.2,15.6-3.3,22.6-7.2c3.6-2,6.8-4.4,9.2-7.7c3.4-4.6,4-9.5,1.2-14.7c-1.1-2.1-2.7-3.8-4.5-5.4c-4.5-4-9.8-6.5-15.5-8.3
			C75.5,9.6,66.4,8.4,57.1,8.4z M77.3,56.8c-0.5,0.1-0.8,0.2-1.1,0.2c-0.8,0-1.1,0.4-1,1.2c0.1,0.6,0,1.1,0,1.7c0,1.4,0,1.4,1.4,1.1
			c0.3-0.1,0.7-0.3,0.7-0.5C77.4,59.3,77.3,58.1,77.3,56.8z M53.9,60.7c0,0.2,0,0.4,0,0.6c0,1.6-0.3,1.4,1.5,1.4
			c0.2,0,0.5-0.3,0.5-0.5c0.1-1,0-2,0-3c0-0.2-0.2-0.5-0.3-0.5c-1.2-0.4-1.8,0-1.8,1.2C53.9,60.3,53.9,60.5,53.9,60.7z M73.1,57.6
			c-0.5,0.1-0.9,0.1-1.3,0.2c-0.6,0-0.9,0.3-0.8,0.9c0,0.6,0,1.2,0,1.8c0,1.5,0.2,1.7,1.7,1.2c0.2-0.1,0.4-0.3,0.4-0.5
			C73.1,60,73.1,58.9,73.1,57.6z M51.6,62.7c0.1-0.1,0.1-0.2,0.1-0.3c0-0.8,0-1.6,0-2.3c0-1.5,0-1.5-1.6-1.5c-0.4,0-0.6,0.1-0.6,0.5
			c0,1,0,2,0,3c0,0.2,0.3,0.5,0.5,0.6C50.7,62.7,51.2,62.6,51.6,62.7z M39,61.2c0-0.8,0-1.5,0-2.2c0-1.9,0-1.9-1.8-2.1
			c0,0-0.1,0-0.3,0.1c0,1.1,0,2.3,0,3.5c0,0.1,0.1,0.3,0.3,0.3C37.7,60.9,38.3,61,39,61.2z M34.7,60.2c0-1.3,0-2.4,0-3.6
			c0-0.2-0.2-0.4-0.3-0.4c-0.5-0.2-1.1-0.3-1.8-0.4c0,1.3,0,2.4,0,3.6c0,0.1,0.2,0.4,0.4,0.4C33.5,59.9,34.1,60,34.7,60.2z
			 M90.1,52.9c-0.7,0.3-1.2,0.4-1.8,0.7c-0.1,0.1-0.3,0.3-0.3,0.4c0,1.2,0,2.3,0,3.6c0.7-0.3,1.3-0.5,1.8-0.8
			c0.1-0.1,0.2-0.3,0.2-0.4C90.1,55.3,90.1,54.2,90.1,52.9z M60.3,60.8c0-0.2,0-0.4,0-0.6c0-1.6,0-1.6-1.6-1.4
			c-0.2,0-0.5,0.3-0.5,0.5c-0.1,1,0,2,0,3c0,0.2,0.2,0.5,0.4,0.5c1.4,0.3,1.7,0,1.7-1.4C60.3,61.2,60.3,61,60.3,60.8z M68.8,58.2
			c-0.5,0-0.9,0.1-1.3,0.1c-0.7,0-0.9,0.3-0.8,1c0,0.8,0.1,1.5,0,2.3c-0.1,0.8,0.3,1,1,0.9c0.2,0,0.5,0,0.7-0.1
			c0.2-0.1,0.4-0.2,0.4-0.4C68.8,60.7,68.8,59.4,68.8,58.2z M45.4,58.3c0,0.9,0,1.7,0,2.6c0,1.4,0,1.4,1.4,1.5c0,0,0.1,0,0.1,0
			c0.4,0.1,0.6-0.1,0.6-0.5c0-0.6,0-1.2,0-1.8c0-2,0.4-1.6-1.8-1.8C45.7,58.2,45.6,58.2,45.4,58.3z M64.5,62.5
			c0-0.1,0.1-0.1,0.1-0.2c0-0.8,0-1.6,0-2.3c0-1.6,0.3-1.4-1.5-1.3c-0.5,0-0.6,0.2-0.6,0.7c0,0.5,0,1.1,0,1.6
			C62.5,62.9,62.5,62.9,64.5,62.5z M81.6,55.8C81,55.9,80.4,56,80,56.2c-0.2,0.1-0.4,0.2-0.4,0.4c0,1.2,0,2.4,0,3.8
			c0.7-0.2,1.2-0.3,1.8-0.5c0.1,0,0.3-0.3,0.3-0.5C81.6,58.2,81.6,57.1,81.6,55.8z M43.3,61.8c0-1.1,0-2.1,0-3.1c0-0.2,0-0.3,0-0.5
			c-0.1-0.2-0.2-0.4-0.4-0.4c-0.5-0.1-1.1-0.2-1.7-0.3c0,0.9,0,1.6,0,2.3C41.2,61.8,41.2,61.8,43.3,61.8z M85.8,54.5
			c-0.7,0.2-1.2,0.4-1.7,0.6c-0.1,0.1-0.3,0.2-0.3,0.4c0,1.2,0,2.4,0,3.7c0.7-0.2,1.3-0.4,1.8-0.6c0.1,0,0.3-0.2,0.3-0.3
			C85.9,57,85.8,55.8,85.8,54.5z M92.3,55.7c0.6-0.3,1.1-0.6,1.6-0.9c0.2-0.1,0.5-0.3,0.5-0.5c0-1.1,0-2.1,0-3.3
			c-0.7,0.3-1.2,0.6-1.7,0.8c-0.1,0.1-0.3,0.3-0.3,0.4C92.3,53.3,92.3,54.4,92.3,55.7z M28.4,54.5c0,1.2,0,2.4,0,3.5
			c0,0.1,0.1,0.3,0.2,0.4c0.6,0.2,1.1,0.4,1.9,0.7c0-1.3,0-2.4,0-3.5c0-0.1-0.1-0.4-0.3-0.4C29.6,54.9,29.1,54.7,28.4,54.5z
			 M24.1,52.9c0,1.2,0,2.2,0,3.3c0,0.1,0.1,0.4,0.3,0.4c0.5,0.3,1.1,0.5,1.8,0.8c0-1.2,0-2.3,0-3.3c0-0.2-0.2-0.4-0.3-0.5
			C25.3,53.4,24.8,53.2,24.1,52.9z M19.9,51c0,1.1,0,2.1,0,3c0,0.1,0.1,0.3,0.2,0.3c0.6,0.4,1.1,0.7,1.9,1.1c0-1.2,0-2.2,0-3.2
			c0-0.1-0.1-0.3-0.2-0.4C21.1,51.6,20.6,51.3,19.9,51z M96.6,52.9c0.1,0,0.2,0.1,0.3,0.1c0.6-0.5,1.5-0.9,1.7-1.6
			c0.3-0.8,0.1-1.9,0.1-3c-0.6,0.4-1.1,0.6-1.5,0.9c-0.2,0.1-0.5,0.4-0.5,0.5C96.6,51,96.6,51.9,96.6,52.9z M17.6,52.6
			c0.5-2.3-0.1-3.4-1.9-3.9C15.2,50.7,15.7,51.7,17.6,52.6z M102.8,45.5c-1.6,0.5-2.5,2.3-1.8,4C102.3,48.5,103.4,47.4,102.8,45.5z
			 M13.3,49.1c0.4-2-0.2-3.1-1.9-3.6C10.9,47.3,12.3,48,13.3,49.1z M107.1,40.6c-0.1,0-0.1-0.1-0.2-0.1c-0.6,0.7-1.2,1.4-1.7,2.2
			c-0.2,0.4-0.2,1-0.2,1.4c0.1,0,0.2,0,0.3,0.1C106,43.1,106.6,41.8,107.1,40.6z"/>
		<path class="st1" d="M57.1,54.8c-9.3-0.2-18.4-1.4-27.2-4.7c-4.7-1.8-9.2-4.1-12.9-7.6c-1.8-1.8-3.4-3.8-4.2-6.3
			c-1.5-4.6-0.2-8.5,2.7-12.1c2.9-3.5,6.7-5.8,10.8-7.7c8.4-3.8,17.3-5.5,26.5-5.9c9.9-0.5,19.7,0.5,29.2,3.6
			c4.9,1.6,9.6,3.8,13.6,7.1c1.8,1.5,3.5,3.2,4.7,5.3c2.7,4.8,2.1,9.4-1.2,13.7c-2.4,3.2-5.7,5.4-9.2,7.3c-6.9,3.6-14.3,5.5-22,6.4
			C64.3,54.4,60.7,54.6,57.1,54.8z M58.2,52.8c8.5-0.1,17.8-1.4,26.6-5.1c4-1.7,7.7-3.9,10.7-7.2c4.4-4.9,4.4-10.8,0.1-15.7
			c-1.7-1.9-3.6-3.4-5.7-4.7c-6.9-4.1-14.5-6-22.4-7c-7.4-0.9-14.7-0.9-22.1,0.2c-6.6,0.9-13,2.6-19,5.7c-3.2,1.6-6.1,3.7-8.3,6.5
			c-2.3,3-3.4,6.3-2.3,10c0.7,2.4,2.1,4.4,3.9,6.1c4.1,3.9,9.1,6.2,14.3,7.9C41.6,51.8,49.3,52.8,58.2,52.8z"/>
		<path class="st9" d="M43.6,32.8c0-4.2,0-8.4,0-12.7c0-0.7,0.2-0.9,0.9-0.9c3.7,0.1,7.5,0.1,11.2,0.1c1.8,0,3.5,0.4,5,1.6
			c1.6,1.3,2.3,3.1,2.4,5.1c0.1,1.9,0.1,3.9,0.1,5.8c0,2.2,0,4.5,0,6.7c0,0.6-0.2,0.9-0.8,0.9c-0.7,0-1.5,0-2.2,0
			c-0.6,0-0.9-0.2-0.9-0.8c0-3.2,0-6.3,0-9.5c0-1.1,0-2.1-0.1-3.2c-0.1-1.8-0.7-2.6-2.5-2.7c-2.9-0.2-5.8-0.1-8.7-0.2
			c-0.2,0-0.4,0.3-0.5,0.5c-0.1,0.2,0,0.5,0,0.8c0,7,0,14,0,21c0,1.1,0,1.1-1.2,1.1c-0.6,0-1.2,0-1.8,0c-0.8,0.1-0.9-0.3-0.9-0.9
			C43.6,41.3,43.6,37,43.6,32.8z"/>
		<path class="st9" d="M51.3,46.2c0-0.5,0-0.8,0-1.1c0-5.9,0-11.7,0-17.6c0-0.8,0.2-1,1-1c0.7,0.1,1.5,0,2.2,0
			c0.6,0,0.8,0.2,0.7,0.7c0,0.4,0,0.9,0,1.3c0,4.2,0,8.5,0,12.7c0,0.6,0.2,0.9,0.8,0.9c2.7-0.1,5.4,0,8.1-0.2c2.1-0.1,2.7-0.8,2.8-3
			c0.1-3,0.1-6.1,0.1-9.1c0-3.3,0-6.6,0-9.9c0-0.7,0.2-0.9,0.9-0.9c0.6,0.1,1.3,0,2,0c1,0,1,0,1,1c0,5.6,0,11.2,0,16.7
			c0,0.5,0,1.1,0,1.6c-0.1,0.7-0.1,1.4-0.3,2c-0.7,2.9-2.5,4.9-5.4,5.1C60.6,46.1,56,46.1,51.3,46.2z"/>
	</g>
</g>
<g id="Comprobar">
</g>
</svg>
