<?xml version="1.0" encoding="utf-8"?>
<!-- Generator: Adobe Illustrator 19.1.0, SVG Export Plug-In . SVG Version: 6.00 Build 0)  -->
<svg version="1.1" id="Capa_1" xmlns="http://www.w3.org/2000/svg" xmlns:xlink="http://www.w3.org/1999/xlink" x="0px" y="0px"
	 viewBox="0 0 113 67.6" style="enable-background:new 0 0 113 67.6;" xml:space="preserve">
<style type="text/css">
	.st0{fill:#1D3B5D;}
	.st1{fill:#072647;}
	.st2{fill:#4A996E;}
	.st3{fill:#2F7850;}
	.st4{fill:#F3E4D0;}
	.st5{fill:#FCBE24;}
	.st6{fill:#D08500;}
	.st7{fill:#FDDE6E;}
	.st8{fill:#FFFFFF;}
	.st9{fill:#187BC5;}
	.st10{fill:#05192B;}
	.st11{fill:#FFE7C5;}
	.st12{fill:#204F34;}
</style>
<g id="Comprobar">
</g>
<g>
	<g>
		<g>
			<g>
				<path class="st2" d="M57.1,9.1c9.3,0,18.4,1.1,27.3,4.1c5.6,1.9,10.9,4.4,15.5,8.3c1.8,1.6,3.3,3.3,4.5,5.4
					c2.8,5.1,2.1,10-1.2,14.7c-2.4,3.3-5.7,5.7-9.2,7.7c-7,3.9-14.7,6-22.6,7.2c-9,1.3-18,1.4-27,0.2c-7.6-1-15-2.9-22-6.4
					c-4-2-7.7-4.4-10.5-8c-2.5-3.1-3.9-6.6-3.4-10.6c0.5-3.3,2.1-6.1,4.4-8.5c3.7-3.9,8.2-6.4,13.1-8.5c8.1-3.3,16.6-4.9,25.3-5.4
					c1-0.1,2-0.1,3-0.1C55.1,9.1,56.1,9.1,57.1,9.1z M57.1,55.5c3.6-0.3,7.2-0.4,10.8-0.8c7.7-0.9,15.1-2.8,22-6.4
					c3.5-1.8,6.7-4.1,9.2-7.3c3.3-4.3,3.9-8.9,1.2-13.7c-1.2-2.1-2.8-3.8-4.7-5.3c-4-3.3-8.7-5.5-13.6-7.1
					c-9.5-3.1-19.3-4.1-29.2-3.6c-9.2,0.4-18.1,2-26.5,5.9c-4.1,1.9-7.9,4.2-10.8,7.7c-3,3.6-4.2,7.5-2.7,12.1
					c0.8,2.5,2.3,4.5,4.2,6.3c3.7,3.6,8.2,5.9,12.9,7.6C38.7,54.1,47.8,55.3,57.1,55.5z"/>
				<path class="st2" d="M77.3,57.4c0,1.3,0,2.5,0,3.6c0,0.2-0.4,0.5-0.7,0.5c-1.4,0.3-1.4,0.3-1.4-1.1c0-0.6,0.1-1.2,0-1.7
					c-0.1-0.8,0.2-1.1,1-1.2C76.5,57.6,76.8,57.5,77.3,57.4z"/>
				<path class="st2" d="M53.9,61.4c0-0.2,0-0.5,0-0.7c0-1.2,0.6-1.6,1.8-1.2c0.2,0.1,0.3,0.3,0.3,0.5c0,1,0,2,0,3
					c0,0.2-0.4,0.5-0.5,0.5c-1.9,0-1.5,0.2-1.5-1.4C53.9,61.8,53.9,61.6,53.9,61.4z"/>
				<path class="st2" d="M73,58.2c0,1.3,0,2.5,0,3.6c0,0.2-0.2,0.4-0.4,0.5c-1.4,0.5-1.7,0.3-1.7-1.2c0-0.6,0-1.2,0-1.8
					c-0.1-0.6,0.2-0.9,0.8-0.9C72.1,58.4,72.5,58.3,73,58.2z"/>
				<path class="st2" d="M51.6,63.3c-0.5,0-1,0-1.4-0.1c-0.2,0-0.5-0.4-0.5-0.6c-0.1-1,0-2,0-3c0-0.4,0.2-0.5,0.6-0.5
					c1.6,0,1.6,0,1.6,1.5c0,0.8,0,1.6,0,2.3C51.7,63.1,51.7,63.2,51.6,63.3z"/>
				<path class="st2" d="M39,61.8c-0.7-0.1-1.3-0.2-1.8-0.4c-0.1,0-0.2-0.2-0.3-0.3c0-1.2,0-2.4,0-3.5c0.2-0.1,0.2-0.1,0.3-0.1
					c1.8,0.2,1.8,0.2,1.8,2.1C39,60.3,39,61,39,61.8z"/>
				<path class="st2" d="M34.7,60.8c-0.7-0.2-1.2-0.3-1.7-0.4c-0.2-0.1-0.4-0.3-0.4-0.4c0-1.2,0-2.3,0-3.6c0.7,0.2,1.2,0.3,1.8,0.4
					c0.1,0,0.3,0.3,0.3,0.4C34.7,58.4,34.7,59.6,34.7,60.8z"/>
				<path class="st2" d="M90.1,53.6c0,1.3,0,2.4,0,3.4c0,0.2-0.1,0.4-0.2,0.4c-0.5,0.3-1.1,0.5-1.8,0.8c0-1.3,0-2.5,0-3.6
					c0-0.1,0.2-0.3,0.3-0.4C88.9,54,89.4,53.8,90.1,53.6z"/>
				<path class="st2" d="M60.3,61.5c0,0.2,0,0.4,0,0.6c0,1.4-0.3,1.6-1.7,1.4c-0.2,0-0.4-0.3-0.4-0.5c0-1-0.1-2,0-3
					c0-0.2,0.3-0.5,0.5-0.5c1.5-0.2,1.6-0.2,1.6,1.4C60.3,61,60.3,61.3,60.3,61.5z"/>
				<path class="st2" d="M68.8,58.8c0,1.3,0,2.5,0,3.7c0,0.1-0.2,0.3-0.4,0.4c-0.2,0.1-0.5,0.1-0.7,0.1c-0.7,0.2-1.1,0-1-0.9
					c0.1-0.7,0-1.5,0-2.3c0-0.6,0.1-1,0.8-1C67.9,58.9,68.3,58.9,68.8,58.8z"/>
				<path class="st2" d="M45.4,58.9c0.2-0.1,0.2-0.1,0.3-0.1c2.2,0.2,1.7-0.2,1.8,1.8c0,0.6,0,1.2,0,1.8c0,0.4-0.1,0.6-0.6,0.5
					c0,0-0.1,0-0.1,0c-1.4-0.1-1.4-0.1-1.4-1.5C45.4,60.6,45.4,59.8,45.4,58.9z"/>
				<path class="st2" d="M64.4,63.2c-2,0.4-2,0.4-2-1.6c0-0.5,0-1.1,0-1.6c0-0.5,0.1-0.7,0.6-0.7c1.7-0.1,1.5-0.3,1.5,1.3
					c0,0.8,0,1.6,0,2.3C64.5,63,64.5,63.1,64.4,63.2z"/>
				<path class="st2" d="M81.6,56.4c0,1.3,0,2.5,0,3.6c0,0.2-0.2,0.4-0.3,0.5c-0.5,0.2-1.1,0.3-1.8,0.5c0-1.3,0-2.6,0-3.8
					c0-0.1,0.2-0.3,0.4-0.4C80.4,56.7,80.9,56.6,81.6,56.4z"/>
				<path class="st2" d="M43.2,62.4c-2.1,0-2.1,0-2.1-1.9c0-0.7,0-1.5,0-2.3c0.7,0.1,1.2,0.1,1.7,0.3c0.1,0,0.3,0.3,0.4,0.4
					c0.1,0.1,0,0.3,0,0.5C43.2,60.4,43.2,61.4,43.2,62.4z"/>
				<path class="st2" d="M85.8,55.1c0,1.3,0,2.5,0,3.7c0,0.1-0.1,0.3-0.3,0.3c-0.5,0.2-1.1,0.4-1.8,0.6c0-1.3,0-2.5,0-3.7
					c0-0.1,0.2-0.3,0.3-0.4C84.6,55.5,85.2,55.3,85.8,55.1z"/>
				<path class="st2" d="M92.3,56.3c0-1.3,0-2.4,0-3.5c0-0.1,0.2-0.3,0.3-0.4c0.5-0.3,1-0.5,1.7-0.8c0,1.2,0,2.3,0,3.3
					c0,0.2-0.3,0.4-0.5,0.5C93.4,55.8,92.9,56,92.3,56.3z"/>
				<path class="st2" d="M28.4,55.1c0.7,0.2,1.3,0.4,1.8,0.6c0.1,0,0.3,0.3,0.3,0.4c0,1.1,0,2.2,0,3.5c-0.7-0.3-1.3-0.4-1.9-0.7
					c-0.1,0-0.2-0.2-0.2-0.4C28.4,57.5,28.4,56.4,28.4,55.1z"/>
				<path class="st2" d="M24.1,53.6c0.7,0.3,1.2,0.4,1.7,0.7c0.2,0.1,0.3,0.3,0.3,0.5c0,1.1,0,2.1,0,3.3c-0.7-0.3-1.3-0.5-1.8-0.8
					c-0.1-0.1-0.3-0.3-0.3-0.4C24.1,55.8,24.1,54.8,24.1,53.6z"/>
				<path class="st2" d="M19.9,51.6c0.7,0.4,1.3,0.6,1.8,0.9c0.1,0.1,0.2,0.2,0.2,0.4c0,1,0,2,0,3.2c-0.7-0.4-1.3-0.8-1.9-1.1
					c-0.1-0.1-0.2-0.2-0.2-0.3C19.9,53.7,19.9,52.7,19.9,51.6z"/>
				<path class="st2" d="M96.6,53.6c0-1,0-1.9,0-2.9c0-0.2,0.3-0.4,0.5-0.5c0.4-0.3,0.9-0.6,1.5-0.9c0,1.1,0.2,2.1-0.1,3
					c-0.2,0.6-1.1,1.1-1.7,1.6C96.7,53.7,96.7,53.6,96.6,53.6z"/>
				<path class="st2" d="M17.6,53.3c-1.9-0.9-2.4-1.9-1.9-3.9C17.5,49.9,18.1,51,17.6,53.3z"/>
				<path class="st2" d="M102.8,46.2c0.6,1.9-0.5,3-1.8,4C100.3,48.5,101.2,46.6,102.8,46.2z"/>
				<path class="st2" d="M13.3,49.8c-1-1.1-2.4-1.9-1.9-3.6C13.1,46.7,13.7,47.8,13.3,49.8z"/>
				<path class="st2" d="M107.1,41.3c-0.6,1.2-1.2,2.4-1.8,3.7c-0.1,0-0.2,0-0.3-0.1c0.1-0.5,0-1,0.2-1.4c0.5-0.8,1.1-1.5,1.7-2.2
					C107,41.2,107.1,41.2,107.1,41.3z"/>
				<path class="st2" d="M58.2,53.4c-8.9,0-16.6-1-24.1-3.4c-5.3-1.7-10.3-4-14.3-7.9c-1.8-1.7-3.2-3.7-3.9-6.1
					c-1.1-3.8-0.1-7.1,2.3-10c2.2-2.8,5.1-4.9,8.3-6.5c6-3.1,12.4-4.8,19-5.7c7.3-1,14.7-1.1,22.1-0.2c7.9,1,15.5,2.9,22.4,7
					c2.1,1.3,4.1,2.8,5.7,4.7c4.3,4.9,4.3,10.8-0.1,15.7c-3,3.3-6.7,5.5-10.7,7.2C76,52,66.7,53.3,58.2,53.4z"/>
			</g>
			<g>
				<path class="st3" d="M56.5,65.6c-9.1-0.1-18.1-1-26.8-3.7c-5.6-1.7-10.8-4-15.5-7.7C9,50.1,5.5,45,5,38.2
					c-0.2-2.4-0.2-4.8,0.1-7.2c0.6-4.3,3.1-7.6,6.2-10.4c4.7-4.3,10.2-7,16.2-9c11.8-4,24.1-5.2,36.5-4.4C72,7.8,80,9.2,87.6,12
					c5.6,2,10.8,4.6,15.2,8.6c3.1,2.8,5.6,6.1,6.2,10.3c0.9,5.4,0.5,10.7-2,15.6c-1.7,3.4-4.4,6.1-7.4,8.3c-5.5,4-11.7,6.4-18.2,8
					C73.2,64.9,64.9,65.6,56.5,65.6z M57.1,9.1c-1,0-2,0-3,0c-1,0-2,0.1-3,0.1c-8.7,0.5-17.2,2.1-25.3,5.4c-4.9,2-9.4,4.6-13.1,8.5
					c-2.3,2.4-3.9,5.2-4.4,8.5c-0.6,4.1,0.9,7.5,3.4,10.6c2.8,3.5,6.5,6,10.5,8c6.9,3.5,14.3,5.4,22,6.4c9,1.2,18,1.2,27-0.2
					c7.9-1.2,15.6-3.3,22.6-7.2c3.6-2,6.8-4.4,9.2-7.7c3.4-4.6,4-9.5,1.2-14.7c-1.1-2.1-2.7-3.8-4.5-5.4c-4.5-4-9.8-6.5-15.5-8.3
					C75.5,10.2,66.4,9.1,57.1,9.1z M77.3,57.4c-0.5,0.1-0.8,0.2-1.1,0.2c-0.8,0-1.1,0.4-1,1.2c0.1,0.6,0,1.1,0,1.7
					c0,1.4,0,1.4,1.4,1.1c0.3-0.1,0.7-0.3,0.7-0.5C77.3,59.9,77.3,58.7,77.3,57.4z M53.9,61.4c0,0.2,0,0.4,0,0.6
					c0,1.6-0.3,1.4,1.5,1.4c0.2,0,0.5-0.3,0.5-0.5c0.1-1,0-2,0-3c0-0.2-0.2-0.5-0.3-0.5c-1.2-0.4-1.8,0-1.8,1.2
					C53.9,60.9,53.9,61.2,53.9,61.4z M73,58.2c-0.5,0.1-0.9,0.1-1.3,0.2c-0.6,0-0.9,0.3-0.8,0.9c0,0.6,0,1.2,0,1.8
					c0,1.5,0.2,1.7,1.7,1.2c0.2-0.1,0.4-0.3,0.4-0.5C73.1,60.7,73,59.5,73,58.2z M51.6,63.3c0.1-0.1,0.1-0.2,0.1-0.3
					c0-0.8,0-1.6,0-2.3c0-1.5,0-1.5-1.6-1.5c-0.4,0-0.6,0.1-0.6,0.5c0,1,0,2,0,3c0,0.2,0.3,0.5,0.5,0.6
					C50.6,63.3,51.1,63.3,51.6,63.3z M39,61.8c0-0.8,0-1.5,0-2.2c0-1.9,0-1.9-1.8-2.1c0,0-0.1,0-0.3,0.1c0,1.1,0,2.3,0,3.5
					c0,0.1,0.1,0.3,0.3,0.3C37.7,61.6,38.3,61.7,39,61.8z M34.7,60.8c0-1.3,0-2.4,0-3.6c0-0.2-0.2-0.4-0.3-0.4
					c-0.5-0.2-1.1-0.3-1.8-0.4c0,1.3,0,2.4,0,3.6c0,0.1,0.2,0.4,0.4,0.4C33.5,60.6,34,60.7,34.7,60.8z M90.1,53.6
					c-0.7,0.3-1.2,0.4-1.8,0.7c-0.1,0.1-0.3,0.3-0.3,0.4c0,1.2,0,2.3,0,3.6c0.7-0.3,1.3-0.5,1.8-0.8c0.1-0.1,0.2-0.3,0.2-0.4
					C90.1,55.9,90.1,54.8,90.1,53.6z M60.3,61.5c0-0.2,0-0.4,0-0.6c0-1.6,0-1.6-1.6-1.4c-0.2,0-0.5,0.3-0.5,0.5c-0.1,1,0,2,0,3
					c0,0.2,0.2,0.5,0.4,0.5c1.4,0.3,1.7,0,1.7-1.4C60.3,61.9,60.3,61.7,60.3,61.5z M68.8,58.8c-0.5,0-0.9,0.1-1.3,0.1
					c-0.7,0-0.9,0.3-0.8,1c0,0.8,0.1,1.5,0,2.3c-0.1,0.8,0.3,1,1,0.9c0.2,0,0.5,0,0.7-0.1c0.2-0.1,0.4-0.2,0.4-0.4
					C68.8,61.3,68.8,60.1,68.8,58.8z M45.4,58.9c0,0.9,0,1.7,0,2.6c0,1.4,0,1.4,1.4,1.5c0,0,0.1,0,0.1,0c0.4,0.1,0.6-0.1,0.6-0.5
					c0-0.6,0-1.2,0-1.8c0-2,0.4-1.6-1.8-1.8C45.6,58.8,45.6,58.9,45.4,58.9z M64.4,63.2c0-0.1,0.1-0.1,0.1-0.2c0-0.8,0-1.6,0-2.3
					c0-1.6,0.3-1.4-1.5-1.3c-0.5,0-0.6,0.2-0.6,0.7c0,0.5,0,1.1,0,1.6C62.4,63.6,62.4,63.6,64.4,63.2z M81.6,56.4
					c-0.6,0.2-1.2,0.3-1.6,0.4c-0.2,0.1-0.4,0.2-0.4,0.4c0,1.2,0,2.4,0,3.8c0.7-0.2,1.2-0.3,1.8-0.5c0.1,0,0.3-0.3,0.3-0.5
					C81.6,58.9,81.6,57.7,81.6,56.4z M43.2,62.4c0-1.1,0-2.1,0-3.1c0-0.2,0-0.3,0-0.5c-0.1-0.2-0.2-0.4-0.4-0.4
					c-0.5-0.1-1.1-0.2-1.7-0.3c0,0.9,0,1.6,0,2.3C41.1,62.5,41.2,62.5,43.2,62.4z M85.8,55.1c-0.7,0.2-1.2,0.4-1.7,0.6
					c-0.1,0.1-0.3,0.2-0.3,0.4c0,1.2,0,2.4,0,3.7c0.7-0.2,1.3-0.4,1.8-0.6c0.1,0,0.3-0.2,0.3-0.3C85.8,57.6,85.8,56.5,85.8,55.1z
					 M92.3,56.3c0.6-0.3,1.1-0.6,1.6-0.9c0.2-0.1,0.5-0.3,0.5-0.5c0-1.1,0-2.1,0-3.3c-0.7,0.3-1.2,0.6-1.7,0.8
					c-0.1,0.1-0.3,0.3-0.3,0.4C92.3,53.9,92.3,55.1,92.3,56.3z M28.4,55.1c0,1.2,0,2.4,0,3.5c0,0.1,0.1,0.3,0.2,0.4
					c0.6,0.2,1.1,0.4,1.9,0.7c0-1.3,0-2.4,0-3.5c0-0.1-0.1-0.4-0.3-0.4C29.6,55.5,29,55.4,28.4,55.1z M24.1,53.6c0,1.2,0,2.2,0,3.3
					c0,0.1,0.1,0.4,0.3,0.4c0.5,0.3,1.1,0.5,1.8,0.8c0-1.2,0-2.3,0-3.3c0-0.2-0.2-0.4-0.3-0.5C25.3,54,24.8,53.8,24.1,53.6z
					 M19.9,51.6c0,1.1,0,2.1,0,3c0,0.1,0.1,0.3,0.2,0.3c0.6,0.4,1.1,0.7,1.9,1.1c0-1.2,0-2.2,0-3.2c0-0.1-0.1-0.3-0.2-0.4
					C21.1,52.2,20.6,52,19.9,51.6z M96.6,53.6c0.1,0,0.2,0.1,0.3,0.1c0.6-0.5,1.5-0.9,1.7-1.6c0.3-0.8,0.1-1.9,0.1-3
					c-0.6,0.4-1.1,0.6-1.5,0.9c-0.2,0.1-0.5,0.4-0.5,0.5C96.5,51.6,96.6,52.6,96.6,53.6z M17.6,53.3c0.5-2.3-0.1-3.4-1.9-3.9
					C15.2,51.3,15.7,52.4,17.6,53.3z M102.8,46.2c-1.6,0.5-2.5,2.3-1.8,4C102.3,49.2,103.4,48,102.8,46.2z M13.3,49.8
					c0.4-2-0.2-3.1-1.9-3.6C10.9,47.9,12.3,48.6,13.3,49.8z M107.1,41.3c-0.1,0-0.1-0.1-0.2-0.1c-0.6,0.7-1.2,1.4-1.7,2.2
					c-0.2,0.4-0.2,1-0.2,1.4c0.1,0,0.2,0,0.3,0.1C105.9,43.7,106.5,42.5,107.1,41.3z"/>
				<path class="st3" d="M57.1,55.5c-9.3-0.2-18.4-1.4-27.2-4.7c-4.7-1.8-9.2-4.1-12.9-7.6c-1.8-1.8-3.4-3.8-4.2-6.3
					c-1.5-4.6-0.2-8.5,2.7-12.1c2.9-3.5,6.7-5.8,10.8-7.7c8.4-3.8,17.3-5.5,26.5-5.9c9.9-0.5,19.7,0.5,29.2,3.6
					c4.9,1.6,9.6,3.8,13.6,7.1c1.8,1.5,3.5,3.2,4.7,5.3c2.7,4.8,2.1,9.4-1.2,13.7c-2.4,3.2-5.7,5.4-9.2,7.3
					c-6.9,3.6-14.3,5.5-22,6.4C64.3,55.1,60.7,55.2,57.1,55.5z M58.2,53.4c8.5-0.1,17.8-1.4,26.6-5.1c4-1.7,7.7-3.9,10.7-7.2
					c4.4-4.9,4.4-10.8,0.1-15.7c-1.7-1.9-3.6-3.4-5.7-4.7c-6.9-4.1-14.5-6-22.4-7c-7.4-0.9-14.7-0.9-22.1,0.2
					c-6.6,0.9-13,2.6-19,5.7c-3.2,1.6-6.1,3.7-8.3,6.5c-2.3,3-3.4,6.3-2.3,10c0.7,2.4,2.1,4.4,3.9,6.1c4.1,3.9,9.1,6.2,14.3,7.9
					C41.6,52.5,49.3,53.4,58.2,53.4z"/>
			</g>
		</g>
	</g>
	<g>
		<g>
			<path class="st12" d="M90.9,56c0,0.6,0,1.1,1,1.6c1.3,0.6,1.2,1.7-0.1,2.4c-1.2,0.6-3.2,0.6-4.4-0.1c-1.2-0.7-1.2-1.8,0-2.4
				c0.5-0.3,0.7-1,0.3-1.3c-0.1-0.1-0.4-0.1-0.6-0.1c-1.2-0.2-2.5-0.3-3.7-0.6c-2.4-0.5-3.8-1.5-3.7-3c0-0.2,0-0.4,0-0.6
				c-0.1,0-0.2,0-0.3,0c-3.3,1.1-7,1.5-10.7,1.7c-5,0.4-10,0.4-15.1,0.2c-4.8-0.2-9.6-0.6-14.2-1.6c-1-0.2-1.9-0.5-2.9-0.7
				c-0.4,1.2-2.4,1.6-3.9,2.3c-1,0.5-2.2,0.7-3.6,0.7c-0.5,0-0.7,0.1-0.7,0.4c-0.1,0.4-0.2,0.8,0.6,1.1c1.3,0.5,1.3,1.7,0.2,2.3
				c-1.1,0.7-3.1,0.7-4.4,0.1c-1.3-0.6-1.5-1.7-0.4-2.4c1-0.6,1.1-0.7,0.9-1.6c-0.5-0.1-1-0.1-1.6-0.2c-1.5-0.2-2.7-0.7-3.7-1.4
				c-0.7-0.4-0.9-0.9-0.9-1.5c0-7.2,0.1-14.5,0.1-21.7c0-2,0-4,0-6c0-0.2-0.1-0.3-0.2-0.5c-0.9-1.1-0.4-2.1,1.4-2.8
				c1.5-0.6,3.2-0.9,5.1-0.9c0.3,0,0.7-0.1,0.7-0.2c0.1-0.2,0-0.4-0.2-0.5c-1-0.7-1.2-1.3-0.5-1.9c0.7-0.6,2.2-1,3.6-0.8
				c1.3,0.1,2.3,0.5,2.7,1.2c0.4,0.7,0,1.2-1,1.7c-0.3,0.2-0.4,0.5-0.5,0.6c1.5,0.4,2.8,0.6,4.1,1c1.6,0.5,2.7,1.3,2.7,2.4
				c0,1.1,0.1,2.2,0.1,3.3c0,0.3,0.2,0.6,0.7,0.7c2.1,0.7,4.4,1.1,6.8,1.4c6.8,0.8,13.6,0.9,20.4,0.7c3.1-0.1,6.3-0.3,9.2-0.9
				c0.2,0,0.4-0.1,0.5-0.1c1.7-0.4,1.8-0.5,1.6-1.5c-0.1-0.7-0.1-1.4-0.4-2.2c-0.3-0.6,0.2-1.2,1-1.7c1.1-0.7,2.7-1.1,4.3-1.4
				c0.4-0.1,1-0.2,0.9-0.3c-0.1-0.2-0.3-0.5-0.6-0.7c-1.3-0.7-1.5-1.6-0.3-2.3c1-0.6,2.3-0.7,3.7-0.5c1.3,0.2,2.2,0.7,2.3,1.4
				c0,0.4-0.3,0.7-0.6,1.1c-0.1,0.2-0.3,0.5-0.5,0.7c1.7,0.2,3.2,0.4,4.6,0.7c1.7,0.3,3.1,0.9,3.4,2c0.1,0.3-0.1,0.6-0.1,1
				c-0.1,0.3-0.3,0.7-0.3,1c0.2,2.4,0.5,4.9,0.8,7.3c0.2,2,0.4,4.1,0.6,6.1c0.2,2.3,0.5,4.6,0.8,7c0.2,2.1,0.4,4.2,0.7,6.2
				c0,0.5,0.3,1,0,1.5c-0.6,1.3-2.4,2-4.6,2.3c-0.2,0-0.4,0-0.6,0.1C91.3,56,91.2,56,90.9,56z"/>
		</g>
		<g>
			<path class="st3" d="M26.2,8c0-0.9,0-1.7-0.9-2.3c-1.2-0.8-1.1-2.5,0.1-3.4c1.1-0.9,3-0.9,4.1,0.1c1.1,1,1.1,2.6,0,3.5
				c-0.5,0.4-0.7,1.4-0.3,1.8c0.1,0.1,0.4,0.1,0.6,0.2c1.1,0.3,2.3,0.5,3.4,0.8c2.2,0.8,3.5,2.2,3.4,4.3c0,0.3,0,0.6,0,0.9
				c0.1,0,0.2,0,0.3,0c3-1.6,6.5-2.2,9.9-2.6c4.6-0.6,9.3-0.7,13.9-0.4c4.5,0.3,8.9,0.7,13.1,2.1c0.9,0.3,1.7,0.7,2.7,1
				c0.4-1.7,2.3-2.4,3.6-3.4c0.9-0.7,2.1-1,3.3-1.1c0.5,0,0.6-0.2,0.7-0.5c0.1-0.6,0.2-1.1-0.6-1.6c-1.2-0.8-1.2-2.4-0.1-3.4
				c1.1-1,2.9-1.1,4.1-0.2c1.2,0.9,1.3,2.5,0.3,3.5c-1,0.9-1,1-0.8,2.3c0.5,0.1,1,0.2,1.5,0.3c1.4,0.3,2.5,1,3.4,2
				c0.6,0.6,0.9,1.4,0.8,2.2c-0.1,10.5-0.2,21.1-0.3,31.6c0,2.9,0,5.8,0,8.7c0,0.2,0.1,0.5,0.2,0.7c0.8,1.6,0.4,3-1.3,4
				c-1.4,0.9-3,1.3-4.7,1.4c-0.2,0-0.6,0.1-0.7,0.3c-0.1,0.2,0,0.6,0.2,0.8c1,1,1.1,1.9,0.5,2.8c-0.6,0.9-2.1,1.5-3.4,1.3
				c-1.2-0.2-2.1-0.7-2.5-1.7c-0.4-1,0-1.8,0.9-2.5c0.3-0.2,0.4-0.7,0.5-0.9c-1.3-0.5-2.6-0.9-3.8-1.5c-1.5-0.8-2.5-1.8-2.5-3.4
				c0-1.6-0.1-3.2-0.1-4.8c0-0.5-0.2-0.8-0.7-1.1c-1.9-1-4.1-1.6-6.2-1.9c-6.2-1.1-12.5-1.2-18.9-0.8c-2.9,0.2-5.8,0.5-8.5,1.4
				c-0.2,0.1-0.3,0.1-0.5,0.2c-1.6,0.6-1.6,0.7-1.5,2.1c0.1,1.1,0.1,2.1,0.4,3.1c0.3,0.9-0.2,1.8-1,2.5c-1.1,1.1-2.5,1.6-4,2.1
				c-0.3,0.1-0.9,0.3-0.9,0.4c0.1,0.3,0.3,0.7,0.6,1c1.2,1,1.4,2.3,0.2,3.4c-0.9,0.8-2.1,1-3.4,0.7c-1.2-0.3-2.1-1-2.1-2.1
				c0-0.5,0.3-1.1,0.5-1.6c0.1-0.4,0.3-0.7,0.5-1c-1.6-0.3-2.9-0.5-4.3-0.9c-1.6-0.5-2.8-1.3-3.1-2.8c-0.1-0.5,0.1-0.9,0.1-1.4
				c0.1-0.5,0.3-1,0.2-1.5c-0.2-3.5-0.4-7.1-0.7-10.6c-0.2-3-0.3-5.9-0.5-8.9c-0.2-3.4-0.4-6.7-0.6-10.1c-0.2-3-0.4-6-0.5-9.1
				c0-0.7-0.2-1.5,0-2.1c0.6-1.9,2.2-2.9,4.3-3.4c0.2,0,0.3-0.1,0.5-0.1C25.8,8.1,26,8,26.2,8z M75.7,48.1c0-0.1,0-0.2,0-0.2
				c0.2-10.5,0.4-21.1,0.6-31.6c0-0.3-0.2-0.6-0.4-0.7c-0.8-0.4-1.6-0.8-2.4-1.1c-3.4-1.2-7-1.7-10.7-2C57.2,11.9,51.6,12,46,12.7
				c-2.7,0.4-5.3,0.9-7.7,2c-1.2,0.6-1.8,1.3-1.4,2.5c0,0.1,0,0.3,0.1,0.5c0.3,4.2,0.6,8.3,0.9,12.5c0.4,4.8,0.7,9.7,1.1,14.5
				c0.1,0.9,0.1,1.7,0.2,2.6c5.9-2.2,12.1-2.4,18.3-2.3C63.7,45.2,69.9,45.7,75.7,48.1z M36.4,50.5c-0.1-0.6-0.1-1.2-0.2-1.7
				c-0.3-3.9-0.6-7.7-0.9-11.6c-0.3-3.9-0.6-7.7-0.9-11.6c-0.3-4.4-0.7-8.8-1-13.2c-0.1-1.4-0.9-2.1-2.2-2.6
				c-1.5-0.5-3.1-0.5-4.7-0.3C25.2,9.6,24,10,23.2,11c-0.3,0.4-0.6,0.9-0.6,1.3c-0.1,0.7,0.1,1.4,0.1,2.1c0.2,3.3,0.4,6.7,0.6,10
				c0.2,3,0.3,5.9,0.5,8.9c0.3,4.3,0.5,8.7,0.8,13c0.1,1.8,0.2,3.5,0.4,5.3C28.6,49.9,32.4,49.5,36.4,50.5z M79,52.3
				c2-0.5,3.9-0.8,5.8-0.7c2,0.2,3.8,0.6,5.7,1.5c0-0.3,0-0.5,0-0.7c0.1-12.8,0.2-25.7,0.3-38.5c0-0.7-0.3-1.1-0.8-1.6
				c-1.8-1.9-7.4-1.9-9.4-0.3c-0.6,0.5-0.9,1-0.9,1.7C79.5,26.4,79.2,39,79,51.6C79,51.8,79,52,79,52.3z M86.2,58.9
				c1.6-0.2,3.1-0.5,4.2-1.5c0.8-0.7,0.8-1.4,0.1-2.1c-0.5-0.5-1.1-0.9-1.7-1.2c-2-0.9-4.2-1.2-6.5-1c-1.4,0.1-2.8,0.3-4,1.1
				c-1.2,0.8-1.3,1.8-0.2,2.7c0.9,0.8,2.1,1.2,3.3,1.5c0-1.9,0.8-2.5,2.9-2.3C86.1,56.4,86.6,57.2,86.2,58.9z M29.5,57.3
				c-0.5-1.6,0-2.4,1.6-2.7c1.9-0.3,2.8,0.3,3.1,2.2c1.3-0.4,2.6-0.9,3.4-1.8c0.7-0.8,0.6-1.7-0.3-2.3c-0.5-0.3-1.1-0.6-1.7-0.8
				c-1.7-0.5-3.5-0.6-5.3-0.4c-1.8,0.2-3.6,0.7-5,1.9c-1.2,1-1.1,2.1,0.3,2.9C26.8,57,28.1,57.3,29.5,57.3z"/>
			<path class="st11" d="M75.7,48.1c-5.8-2.4-12-2.9-18.2-3c-6.2-0.1-12.4,0.1-18.3,2.3c-0.1-0.9-0.2-1.7-0.2-2.6
				c-0.4-4.8-0.7-9.7-1.1-14.5c-0.3-4.2-0.6-8.3-0.9-12.5c0-0.2,0-0.3-0.1-0.5c-0.4-1.2,0.2-2,1.4-2.5c2.4-1.1,5-1.7,7.7-2
				c5.6-0.8,11.2-0.8,16.8-0.4c3.6,0.3,7.3,0.8,10.7,2c0.8,0.3,1.6,0.7,2.4,1.1c0.2,0.1,0.5,0.5,0.4,0.7
				c-0.2,10.5-0.4,21.1-0.6,31.6C75.7,47.9,75.7,48,75.7,48.1z"/>
			<path class="st11" d="M36.4,50.5c-4.1-1-7.8-0.7-11.4,1.2c-0.1-1.8-0.2-3.6-0.4-5.3c-0.3-4.3-0.5-8.7-0.8-13
				c-0.2-3-0.3-5.9-0.5-8.9c-0.2-3.3-0.4-6.7-0.6-10c0-0.7-0.2-1.4-0.1-2.1c0-0.5,0.3-1,0.6-1.3c0.8-1,2.1-1.4,3.5-1.6
				c1.6-0.2,3.2-0.2,4.7,0.3c1.4,0.5,2.2,1.2,2.2,2.6c0.3,4.4,0.6,8.8,1,13.2c0.3,3.9,0.6,7.7,0.9,11.6c0.3,3.9,0.6,7.7,0.9,11.6
				C36.3,49.3,36.4,49.9,36.4,50.5z"/>
			<path class="st11" d="M79,52.3c0-0.3,0-0.5,0-0.7c0.3-12.6,0.6-25.2,0.8-37.8c0-0.7,0.3-1.2,0.9-1.7c2-1.6,7.6-1.6,9.4,0.3
				c0.5,0.5,0.8,1,0.8,1.6c-0.1,12.8-0.2,25.7-0.3,38.5c0,0.2,0,0.4,0,0.7c-1.8-0.9-3.7-1.4-5.7-1.5C82.8,51.5,80.9,51.8,79,52.3z"
				/>
			<path class="st6" d="M86.2,58.9c0.4-1.7-0.2-2.5-1.8-2.6c-2.1-0.2-2.8,0.4-2.9,2.3c-1.3-0.3-2.4-0.8-3.3-1.5
				c-1.1-0.9-1-1.9,0.2-2.7c1.2-0.8,2.6-1,4-1.1c2.3-0.2,4.4,0,6.5,1c0.6,0.3,1.2,0.7,1.7,1.2c0.7,0.7,0.7,1.4-0.1,2.1
				C89.3,58.4,87.8,58.7,86.2,58.9z"/>
			<path class="st6" d="M29.5,57.3c-1.4-0.1-2.7-0.3-3.8-0.9c-1.4-0.8-1.6-1.9-0.3-2.9c1.4-1.1,3.1-1.6,5-1.9
				c1.8-0.2,3.6-0.2,5.3,0.4c0.6,0.2,1.2,0.5,1.7,0.8c0.9,0.6,1,1.5,0.3,2.3c-0.9,1-2.1,1.5-3.4,1.8c-0.3-1.9-1.1-2.5-3.1-2.2
				C29.4,54.9,28.9,55.7,29.5,57.3z"/>
		</g>
	</g>
</g>
</svg>
