<?xml version="1.0" encoding="utf-8"?>
<!-- Generator: Adobe Illustrator 19.1.0, SVG Export Plug-In . SVG Version: 6.00 Build 0)  -->
<svg version="1.1" id="Capa_1" xmlns="http://www.w3.org/2000/svg" xmlns:xlink="http://www.w3.org/1999/xlink" x="0px" y="0px"
	 viewBox="0 0 113 67.6" style="enable-background:new 0 0 113 67.6;" xml:space="preserve">
<style type="text/css">
	.st0{fill:#1D3B5D;}
	.st1{fill:#072647;}
	.st2{fill:#4A996E;}
	.st3{fill:#2F7850;}
	.st4{fill:#F3E4D0;}
	.st5{fill:#FCBE24;}
	.st6{fill:#D08500;}
	.st7{fill:#FDDE6E;}
	.st8{fill:#FFFFFF;}
	.st9{fill:#187BC5;}
	.st10{fill:#05192B;}
	.st11{fill:#FFE7C5;}
	.st12{fill:#204F34;}
</style>
<g id="Comprobar">
</g>
<g>
	<g>
		<g>
			<path class="st0" d="M57.4,9.5c9.3,0,18.4,1.1,27.3,4.1c5.6,1.9,10.9,4.4,15.5,8.3c1.8,1.6,3.3,3.3,4.5,5.4
				c2.8,5.1,2.1,10-1.2,14.7c-2.4,3.3-5.7,5.7-9.2,7.7c-7,3.9-14.7,6-22.6,7.2c-9,1.3-18,1.4-27,0.2c-7.6-1-15-2.9-22-6.4
				c-4-2-7.7-4.4-10.5-8C9.5,39.6,8.1,36.1,8.6,32c0.5-3.3,2.1-6.1,4.4-8.5c3.7-3.9,8.2-6.4,13.1-8.5c8.1-3.3,16.6-4.9,25.3-5.4
				c1-0.1,2-0.1,3-0.1C55.4,9.5,56.4,9.5,57.4,9.5z M57.4,55.9c3.6-0.3,7.2-0.4,10.8-0.8c7.7-0.9,15.1-2.8,22-6.4
				c3.5-1.8,6.7-4.1,9.2-7.3c3.3-4.3,3.9-8.9,1.2-13.7c-1.2-2.1-2.8-3.8-4.7-5.3c-4-3.3-8.7-5.5-13.6-7.1
				c-9.5-3.1-19.3-4.1-29.2-3.6c-9.2,0.4-18.1,2-26.5,5.9c-4.1,1.9-7.9,4.2-10.8,7.7c-3,3.6-4.2,7.5-2.7,12.1
				c0.8,2.5,2.3,4.5,4.2,6.3c3.7,3.6,8.2,5.9,12.9,7.6C39,54.5,48.1,55.7,57.4,55.9z"/>
			<path class="st0" d="M77.6,57.9c0,1.3,0,2.5,0,3.6c0,0.2-0.4,0.5-0.7,0.5c-1.4,0.3-1.4,0.3-1.4-1.1c0-0.6,0.1-1.2,0-1.7
				c-0.1-0.8,0.2-1.1,1-1.2C76.8,58,77.2,57.9,77.6,57.9z"/>
			<path class="st0" d="M54.2,61.8c0-0.2,0-0.5,0-0.7c0-1.2,0.6-1.6,1.8-1.2c0.2,0.1,0.3,0.3,0.3,0.5c0,1,0,2,0,3
				c0,0.2-0.4,0.5-0.5,0.5c-1.9,0-1.5,0.2-1.5-1.4C54.2,62.2,54.2,62,54.2,61.8z"/>
			<path class="st0" d="M73.4,58.6c0,1.3,0,2.5,0,3.6c0,0.2-0.2,0.4-0.4,0.5c-1.4,0.5-1.7,0.3-1.7-1.2c0-0.6,0-1.2,0-1.8
				c-0.1-0.6,0.2-0.9,0.8-0.9C72.4,58.8,72.8,58.7,73.4,58.6z"/>
			<path class="st0" d="M51.9,63.7c-0.5,0-1,0-1.4-0.1c-0.2,0-0.5-0.4-0.5-0.6c-0.1-1,0-2,0-3c0-0.4,0.2-0.5,0.6-0.5
				c1.6,0,1.6,0,1.6,1.5c0,0.8,0,1.6,0,2.3C52,63.5,52,63.6,51.9,63.7z"/>
			<path class="st0" d="M39.3,62.2c-0.7-0.1-1.3-0.2-1.8-0.4c-0.1,0-0.2-0.2-0.3-0.3c0-1.2,0-2.4,0-3.5c0.2-0.1,0.2-0.1,0.3-0.1
				c1.8,0.2,1.8,0.2,1.8,2.1C39.3,60.7,39.3,61.4,39.3,62.2z"/>
			<path class="st0" d="M35,61.3c-0.7-0.2-1.2-0.3-1.7-0.4c-0.2-0.1-0.4-0.3-0.4-0.4c0-1.2,0-2.3,0-3.6c0.7,0.2,1.2,0.3,1.8,0.4
				c0.1,0,0.3,0.3,0.3,0.4C35,58.8,35,60,35,61.3z"/>
			<path class="st0" d="M90.4,54c0,1.3,0,2.4,0,3.4c0,0.2-0.1,0.4-0.2,0.4c-0.5,0.3-1.1,0.5-1.8,0.8c0-1.3,0-2.5,0-3.6
				c0-0.1,0.2-0.3,0.3-0.4C89.2,54.4,89.7,54.3,90.4,54z"/>
			<path class="st0" d="M60.6,61.9c0,0.2,0,0.4,0,0.6c0,1.4-0.3,1.6-1.7,1.4c-0.2,0-0.4-0.3-0.4-0.5c0-1-0.1-2,0-3
				c0-0.2,0.3-0.5,0.5-0.5c1.5-0.2,1.6-0.2,1.6,1.4C60.6,61.5,60.6,61.7,60.6,61.9z"/>
			<path class="st0" d="M69.1,59.2c0,1.3,0,2.5,0,3.7c0,0.1-0.2,0.3-0.4,0.4c-0.2,0.1-0.5,0.1-0.7,0.1c-0.7,0.2-1.1,0-1-0.9
				c0.1-0.7,0-1.5,0-2.3c0-0.6,0.1-1,0.8-1C68.2,59.4,68.6,59.3,69.1,59.2z"/>
			<path class="st0" d="M45.7,59.3c0.2-0.1,0.2-0.1,0.3-0.1c2.2,0.2,1.7-0.2,1.8,1.8c0,0.6,0,1.2,0,1.8c0,0.4-0.1,0.6-0.6,0.5
				c0,0-0.1,0-0.1,0c-1.4-0.1-1.4-0.1-1.4-1.5C45.7,61.1,45.7,60.2,45.7,59.3z"/>
			<path class="st0" d="M64.8,63.6c-2,0.4-2,0.4-2-1.6c0-0.5,0-1.1,0-1.6c0-0.5,0.1-0.7,0.6-0.7c1.7-0.1,1.5-0.3,1.5,1.3
				c0,0.8,0,1.6,0,2.3C64.8,63.4,64.8,63.5,64.8,63.6z"/>
			<path class="st0" d="M81.9,56.8c0,1.3,0,2.5,0,3.6c0,0.2-0.2,0.4-0.3,0.5c-0.5,0.2-1.1,0.3-1.8,0.5c0-1.3,0-2.6,0-3.8
				c0-0.1,0.2-0.3,0.4-0.4C80.7,57.1,81.2,57,81.9,56.8z"/>
			<path class="st0" d="M43.6,62.9c-2.1,0-2.1,0-2.1-1.9c0-0.7,0-1.5,0-2.3c0.7,0.1,1.2,0.1,1.7,0.3c0.1,0,0.3,0.3,0.4,0.4
				c0.1,0.1,0,0.3,0,0.5C43.6,60.8,43.6,61.8,43.6,62.9z"/>
			<path class="st0" d="M86.1,55.5c0,1.3,0,2.5,0,3.7c0,0.1-0.1,0.3-0.3,0.3c-0.5,0.2-1.1,0.4-1.8,0.6c0-1.3,0-2.5,0-3.7
				c0-0.1,0.2-0.3,0.3-0.4C84.9,55.9,85.5,55.8,86.1,55.5z"/>
			<path class="st0" d="M92.6,56.8c0-1.3,0-2.4,0-3.5c0-0.1,0.2-0.3,0.3-0.4c0.5-0.3,1-0.5,1.7-0.8c0,1.2,0,2.3,0,3.3
				c0,0.2-0.3,0.4-0.5,0.5C93.7,56.2,93.2,56.4,92.6,56.8z"/>
			<path class="st0" d="M28.7,55.6c0.7,0.2,1.3,0.4,1.8,0.6c0.1,0,0.3,0.3,0.3,0.4c0,1.1,0,2.2,0,3.5c-0.7-0.3-1.3-0.4-1.9-0.7
				c-0.1,0-0.2-0.2-0.2-0.4C28.7,57.9,28.7,56.8,28.7,55.6z"/>
			<path class="st0" d="M24.4,54c0.7,0.3,1.2,0.4,1.7,0.7c0.2,0.1,0.3,0.3,0.3,0.5c0,1.1,0,2.1,0,3.3c-0.7-0.3-1.3-0.5-1.8-0.8
				c-0.1-0.1-0.3-0.3-0.3-0.4C24.4,56.2,24.4,55.2,24.4,54z"/>
			<path class="st0" d="M20.2,52c0.7,0.4,1.3,0.6,1.8,0.9c0.1,0.1,0.2,0.2,0.2,0.4c0,1,0,2,0,3.2c-0.7-0.4-1.3-0.8-1.9-1.1
				c-0.1-0.1-0.2-0.2-0.2-0.3C20.2,54.1,20.2,53.2,20.2,52z"/>
			<path class="st0" d="M96.9,54c0-1,0-1.9,0-2.9c0-0.2,0.3-0.4,0.5-0.5c0.4-0.3,0.9-0.6,1.5-0.9c0,1.1,0.2,2.1-0.1,3
				c-0.2,0.6-1.1,1.1-1.7,1.6C97,54.1,97,54,96.9,54z"/>
			<path class="st0" d="M17.9,53.7c-1.9-0.9-2.4-1.9-1.9-3.9C17.8,50.3,18.4,51.4,17.9,53.7z"/>
			<path class="st0" d="M103.1,46.6c0.6,1.9-0.5,3-1.8,4C100.6,48.9,101.5,47,103.1,46.6z"/>
			<path class="st0" d="M13.6,50.2c-1-1.1-2.4-1.9-1.9-3.6C13.4,47.1,14,48.2,13.6,50.2z"/>
			<path class="st0" d="M107.4,41.7c-0.6,1.2-1.2,2.4-1.8,3.7c-0.1,0-0.2,0-0.3-0.1c0.1-0.5,0-1,0.2-1.4c0.5-0.8,1.1-1.5,1.7-2.2
				C107.3,41.6,107.4,41.7,107.4,41.7z"/>
			<path class="st0" d="M58.5,53.8c-8.9,0-16.6-1-24.1-3.4c-5.3-1.7-10.3-4-14.3-7.9c-1.8-1.7-3.2-3.7-3.9-6.1
				c-1.1-3.8-0.1-7.1,2.3-10c2.2-2.8,5.1-4.9,8.3-6.5c6-3.1,12.4-4.8,19-5.7c7.3-1,14.7-1.1,22.1-0.2c7.9,1,15.5,2.9,22.4,7
				c2.1,1.3,4.1,2.8,5.7,4.7c4.3,4.9,4.3,10.8-0.1,15.7c-3,3.3-6.7,5.5-10.7,7.2C76.3,52.5,67,53.8,58.5,53.8z"/>
		</g>
		<g>
			<path class="st1" d="M56.8,66C47.7,66,38.7,65,30,62.3c-5.6-1.7-10.8-4-15.5-7.7c-5.2-4.1-8.7-9.2-9.2-16
				c-0.2-2.4-0.2-4.8,0.1-7.2c0.6-4.3,3.1-7.6,6.2-10.4c4.7-4.3,10.2-7,16.2-9c11.8-4,24.1-5.2,36.5-4.4c8.1,0.5,16,1.9,23.7,4.7
				c5.6,2,10.8,4.6,15.2,8.6c3.1,2.8,5.6,6.1,6.2,10.3c0.9,5.4,0.5,10.7-2,15.6c-1.7,3.4-4.4,6.1-7.4,8.3c-5.5,4-11.7,6.4-18.2,8
				C73.5,65.3,65.2,66.1,56.8,66z M57.4,9.5c-1,0-2,0-3,0c-1,0-2,0.1-3,0.1c-8.7,0.5-17.2,2.1-25.3,5.4c-4.9,2-9.4,4.6-13.1,8.5
				c-2.3,2.4-3.9,5.2-4.4,8.5c-0.6,4.1,0.9,7.5,3.4,10.6c2.8,3.5,6.5,6,10.5,8c6.9,3.5,14.3,5.4,22,6.4c9,1.2,18,1.2,27-0.2
				c7.9-1.2,15.6-3.3,22.6-7.2c3.6-2,6.8-4.4,9.2-7.7c3.4-4.6,4-9.5,1.2-14.7c-1.1-2.1-2.7-3.8-4.5-5.4c-4.5-4-9.8-6.5-15.5-8.3
				C75.8,10.6,66.7,9.5,57.4,9.5z M77.6,57.9c-0.5,0.1-0.8,0.2-1.1,0.2c-0.8,0-1.1,0.4-1,1.2c0.1,0.6,0,1.1,0,1.7
				c0,1.4,0,1.4,1.4,1.1c0.3-0.1,0.7-0.3,0.7-0.5C77.7,60.3,77.6,59.2,77.6,57.9z M54.2,61.8c0,0.2,0,0.4,0,0.6
				c0,1.6-0.3,1.4,1.5,1.4c0.2,0,0.5-0.3,0.5-0.5c0.1-1,0-2,0-3c0-0.2-0.2-0.5-0.3-0.5c-1.2-0.4-1.8,0-1.8,1.2
				C54.2,61.3,54.2,61.6,54.2,61.8z M73.4,58.6c-0.5,0.1-0.9,0.1-1.3,0.2c-0.6,0-0.9,0.3-0.8,0.9c0,0.6,0,1.2,0,1.8
				c0,1.5,0.2,1.7,1.7,1.2c0.2-0.1,0.4-0.3,0.4-0.5C73.4,61.1,73.4,60,73.4,58.6z M51.9,63.7c0.1-0.1,0.1-0.2,0.1-0.3
				c0-0.8,0-1.6,0-2.3c0-1.5,0-1.5-1.6-1.5c-0.4,0-0.6,0.1-0.6,0.5c0,1,0,2,0,3c0,0.2,0.3,0.5,0.5,0.6C51,63.7,51.5,63.7,51.9,63.7z
				 M39.3,62.2c0-0.8,0-1.5,0-2.2c0-1.9,0-1.9-1.8-2.1c0,0-0.1,0-0.3,0.1c0,1.1,0,2.3,0,3.5c0,0.1,0.1,0.3,0.3,0.3
				C38,62,38.6,62.1,39.3,62.2z M35,61.3c0-1.3,0-2.4,0-3.6c0-0.2-0.2-0.4-0.3-0.4c-0.5-0.2-1.1-0.3-1.8-0.4c0,1.3,0,2.4,0,3.6
				c0,0.1,0.2,0.4,0.4,0.4C33.8,61,34.4,61.1,35,61.3z M90.4,54c-0.7,0.3-1.2,0.4-1.8,0.7c-0.1,0.1-0.3,0.3-0.3,0.4
				c0,1.2,0,2.3,0,3.6c0.7-0.3,1.3-0.5,1.8-0.8c0.1-0.1,0.2-0.3,0.2-0.4C90.4,56.4,90.4,55.3,90.4,54z M60.6,61.9c0-0.2,0-0.4,0-0.6
				c0-1.6,0-1.6-1.6-1.4c-0.2,0-0.5,0.3-0.5,0.5c-0.1,1,0,2,0,3c0,0.2,0.2,0.5,0.4,0.5c1.4,0.3,1.7,0,1.7-1.4
				C60.6,62.3,60.6,62.1,60.6,61.9z M69.1,59.2c-0.5,0-0.9,0.1-1.3,0.1c-0.7,0-0.9,0.3-0.8,1c0,0.8,0.1,1.5,0,2.3
				c-0.1,0.8,0.3,1,1,0.9c0.2,0,0.5,0,0.7-0.1c0.2-0.1,0.4-0.2,0.4-0.4C69.1,61.7,69.1,60.5,69.1,59.2z M45.7,59.3
				c0,0.9,0,1.7,0,2.6c0,1.4,0,1.4,1.4,1.5c0,0,0.1,0,0.1,0c0.4,0.1,0.6-0.1,0.6-0.5c0-0.6,0-1.2,0-1.8c0-2,0.4-1.6-1.8-1.8
				C45.9,59.3,45.9,59.3,45.7,59.3z M64.8,63.6c0-0.1,0.1-0.1,0.1-0.2c0-0.8,0-1.6,0-2.3c0-1.6,0.3-1.4-1.5-1.3
				c-0.5,0-0.6,0.2-0.6,0.7c0,0.5,0,1.1,0,1.6C62.8,64,62.8,64,64.8,63.6z M81.9,56.8c-0.6,0.2-1.2,0.3-1.6,0.4
				c-0.2,0.1-0.4,0.2-0.4,0.4c0,1.2,0,2.4,0,3.8c0.7-0.2,1.2-0.3,1.8-0.5c0.1,0,0.3-0.3,0.3-0.5C81.9,59.3,81.9,58.1,81.9,56.8z
				 M43.6,62.9c0-1.1,0-2.1,0-3.1c0-0.2,0-0.3,0-0.5c-0.1-0.2-0.2-0.4-0.4-0.4c-0.5-0.1-1.1-0.2-1.7-0.3c0,0.9,0,1.6,0,2.3
				C41.4,62.9,41.5,62.9,43.6,62.9z M86.1,55.5c-0.7,0.2-1.2,0.4-1.7,0.6c-0.1,0.1-0.3,0.2-0.3,0.4c0,1.2,0,2.4,0,3.7
				c0.7-0.2,1.3-0.4,1.8-0.6c0.1,0,0.3-0.2,0.3-0.3C86.1,58.1,86.1,56.9,86.1,55.5z M92.6,56.8c0.6-0.3,1.1-0.6,1.6-0.9
				c0.2-0.1,0.5-0.3,0.5-0.5c0-1.1,0-2.1,0-3.3c-0.7,0.3-1.2,0.6-1.7,0.8c-0.1,0.1-0.3,0.3-0.3,0.4C92.6,54.4,92.6,55.5,92.6,56.8z
				 M28.7,55.6c0,1.2,0,2.4,0,3.5c0,0.1,0.1,0.3,0.2,0.4c0.6,0.2,1.1,0.4,1.9,0.7c0-1.3,0-2.4,0-3.5c0-0.1-0.1-0.4-0.3-0.4
				C29.9,55.9,29.4,55.8,28.7,55.6z M24.4,54c0,1.2,0,2.2,0,3.3c0,0.1,0.1,0.4,0.3,0.4c0.5,0.3,1.1,0.5,1.8,0.8c0-1.2,0-2.3,0-3.3
				c0-0.2-0.2-0.4-0.3-0.5C25.6,54.4,25.1,54.3,24.4,54z M20.2,52c0,1.1,0,2.1,0,3c0,0.1,0.1,0.3,0.2,0.3c0.6,0.4,1.1,0.7,1.9,1.1
				c0-1.2,0-2.2,0-3.2c0-0.1-0.1-0.3-0.2-0.4C21.4,52.6,20.9,52.4,20.2,52z M96.9,54c0.1,0,0.2,0.1,0.3,0.1c0.6-0.5,1.5-0.9,1.7-1.6
				c0.3-0.8,0.1-1.9,0.1-3c-0.6,0.4-1.1,0.6-1.5,0.9c-0.2,0.1-0.5,0.4-0.5,0.5C96.8,52,96.9,53,96.9,54z M17.9,53.7
				c0.5-2.3-0.1-3.4-1.9-3.9C15.5,51.8,16,52.8,17.9,53.7z M103.1,46.6c-1.6,0.5-2.5,2.3-1.8,4C102.6,49.6,103.7,48.5,103.1,46.6z
				 M13.6,50.2c0.4-2-0.2-3.1-1.9-3.6C11.2,48.3,12.6,49.1,13.6,50.2z M107.4,41.7c-0.1,0-0.1-0.1-0.2-0.1c-0.6,0.7-1.2,1.4-1.7,2.2
				c-0.2,0.4-0.2,1-0.2,1.4c0.1,0,0.2,0,0.3,0.1C106.3,44.1,106.8,42.9,107.4,41.7z"/>
			<path class="st1" d="M57.4,55.9c-9.3-0.2-18.4-1.4-27.2-4.7c-4.7-1.8-9.2-4.1-12.9-7.6c-1.8-1.8-3.4-3.8-4.2-6.3
				c-1.5-4.6-0.2-8.5,2.7-12.1c2.9-3.5,6.7-5.8,10.8-7.7c8.4-3.8,17.3-5.5,26.5-5.9c9.9-0.5,19.7,0.5,29.2,3.6
				c4.9,1.6,9.6,3.8,13.6,7.1c1.8,1.5,3.5,3.2,4.7,5.3c2.7,4.8,2.1,9.4-1.2,13.7c-2.4,3.2-5.7,5.4-9.2,7.3c-6.9,3.6-14.3,5.5-22,6.4
				C64.6,55.5,61,55.6,57.4,55.9z M58.5,53.8c8.5-0.1,17.8-1.4,26.6-5.1c4-1.7,7.7-3.9,10.7-7.2c4.4-4.9,4.4-10.8,0.1-15.7
				c-1.7-1.9-3.6-3.4-5.7-4.7c-6.9-4.1-14.5-6-22.4-7c-7.4-0.9-14.7-0.9-22.1,0.2c-6.6,0.9-13,2.6-19,5.7c-3.2,1.6-6.1,3.7-8.3,6.5
				c-2.3,3-3.4,6.3-2.3,10c0.7,2.4,2.1,4.4,3.9,6.1c4.1,3.9,9.1,6.2,14.3,7.9C41.9,52.9,49.6,53.8,58.5,53.8z"/>
		</g>
	</g>
	<g>
		<g>
			<path class="st10" d="M90.9,56.2c0,0.6,0,1.1,1,1.6c1.3,0.6,1.2,1.7-0.1,2.4c-1.2,0.6-3.2,0.6-4.4-0.1c-1.2-0.7-1.2-1.8,0-2.4
				c0.5-0.3,0.7-1,0.3-1.3c-0.1-0.1-0.4-0.1-0.6-0.1c-1.2-0.2-2.5-0.3-3.7-0.6c-2.4-0.5-3.8-1.5-3.7-3c0-0.2,0-0.4,0-0.6
				c-0.1,0-0.2,0-0.3,0c-3.3,1.1-7,1.5-10.7,1.7c-5,0.4-10,0.4-15.1,0.2c-4.8-0.2-9.6-0.6-14.2-1.6c-1-0.2-1.9-0.5-2.9-0.7
				c-0.4,1.2-2.4,1.6-3.9,2.3c-1,0.5-2.2,0.7-3.6,0.7c-0.5,0-0.7,0.1-0.7,0.4c-0.1,0.4-0.2,0.8,0.6,1.1c1.3,0.5,1.3,1.7,0.2,2.3
				c-1.1,0.7-3.1,0.7-4.4,0.1c-1.3-0.6-1.5-1.7-0.4-2.4c1-0.6,1.1-0.7,0.9-1.6c-0.5-0.1-1-0.1-1.6-0.2c-1.5-0.2-2.7-0.7-3.7-1.4
				c-0.7-0.4-0.9-0.9-0.9-1.5c0-7.2,0.1-14.5,0.1-21.7c0-2,0-4,0-6c0-0.2-0.1-0.3-0.2-0.5c-0.9-1.1-0.4-2.1,1.4-2.8
				c1.5-0.6,3.2-0.9,5.1-0.9c0.3,0,0.7-0.1,0.7-0.2c0.1-0.2,0-0.4-0.2-0.5c-1-0.7-1.2-1.3-0.5-1.9c0.7-0.6,2.2-1,3.6-0.8
				c1.3,0.1,2.3,0.5,2.7,1.2c0.4,0.7,0,1.2-1,1.7c-0.3,0.2-0.4,0.5-0.5,0.6c1.5,0.4,2.8,0.6,4.1,1c1.6,0.5,2.7,1.3,2.7,2.4
				c0,1.1,0.1,2.2,0.1,3.3c0,0.3,0.2,0.6,0.7,0.7c2.1,0.7,4.4,1.1,6.8,1.4c6.8,0.8,13.6,0.9,20.4,0.7c3.1-0.1,6.3-0.3,9.2-0.9
				c0.2,0,0.4-0.1,0.5-0.1c1.7-0.4,1.8-0.5,1.6-1.5c-0.1-0.7-0.1-1.4-0.4-2.2c-0.3-0.6,0.2-1.2,1-1.7c1.1-0.7,2.7-1.1,4.3-1.4
				c0.4-0.1,1-0.2,0.9-0.3c-0.1-0.2-0.3-0.5-0.6-0.7c-1.3-0.7-1.5-1.6-0.3-2.3c1-0.6,2.3-0.7,3.7-0.5c1.3,0.2,2.2,0.7,2.3,1.4
				c0,0.4-0.3,0.7-0.6,1.1c-0.1,0.2-0.3,0.5-0.5,0.7c1.7,0.2,3.2,0.4,4.6,0.7c1.7,0.3,3.1,0.9,3.4,2c0.1,0.3-0.1,0.6-0.1,1
				c-0.1,0.3-0.3,0.7-0.3,1c0.2,2.4,0.5,4.9,0.8,7.3c0.2,2,0.4,4.1,0.6,6.1c0.2,2.3,0.5,4.6,0.8,7c0.2,2.1,0.4,4.2,0.7,6.2
				c0,0.5,0.3,1,0,1.5c-0.6,1.3-2.4,2-4.6,2.3c-0.2,0-0.4,0-0.6,0.1C91.3,56.2,91.2,56.2,90.9,56.2z"/>
		</g>
		<g>
			<path class="st1" d="M26.2,8.2c0-0.9,0-1.7-0.9-2.3c-1.2-0.8-1.1-2.5,0.1-3.4c1.1-0.9,3-0.9,4.1,0.1c1.1,1,1.1,2.6,0,3.5
				c-0.5,0.4-0.7,1.4-0.3,1.8C29.2,8,29.5,8,29.7,8c1.1,0.3,2.3,0.5,3.4,0.8c2.2,0.8,3.5,2.2,3.4,4.3c0,0.3,0,0.6,0,0.9
				c0.1,0,0.2,0,0.3,0c3-1.6,6.5-2.2,9.9-2.6c4.6-0.6,9.3-0.7,13.9-0.4c4.5,0.3,8.9,0.7,13.1,2.1c0.9,0.3,1.7,0.7,2.7,1
				c0.4-1.7,2.3-2.4,3.6-3.4c0.9-0.7,2.1-1,3.3-1.1c0.5,0,0.6-0.2,0.7-0.5c0.1-0.6,0.2-1.1-0.6-1.6c-1.2-0.8-1.2-2.4-0.1-3.4
				c1.1-1,2.9-1.1,4.1-0.2c1.2,0.9,1.3,2.5,0.3,3.5c-1,0.9-1,1-0.8,2.3c0.5,0.1,1,0.2,1.5,0.3c1.4,0.3,2.5,1,3.4,2
				c0.6,0.6,0.9,1.4,0.8,2.2c-0.1,10.5-0.2,21.1-0.3,31.6c0,2.9,0,5.8,0,8.7c0,0.2,0.1,0.5,0.2,0.7c0.8,1.6,0.4,3-1.3,4
				c-1.4,0.9-3,1.3-4.7,1.4c-0.2,0-0.6,0.1-0.7,0.3c-0.1,0.2,0,0.6,0.2,0.8c1,1,1.1,1.9,0.5,2.8c-0.6,0.9-2.1,1.5-3.4,1.3
				c-1.2-0.2-2.1-0.7-2.5-1.7c-0.4-1,0-1.8,0.9-2.5c0.3-0.2,0.4-0.7,0.5-0.9c-1.3-0.5-2.6-0.9-3.8-1.5c-1.5-0.8-2.5-1.8-2.5-3.4
				c0-1.6-0.1-3.2-0.1-4.8c0-0.5-0.2-0.8-0.7-1.1c-1.9-1-4.1-1.6-6.2-1.9c-6.2-1.1-12.5-1.2-18.9-0.8c-2.9,0.2-5.8,0.5-8.5,1.4
				c-0.2,0.1-0.3,0.1-0.5,0.2c-1.6,0.6-1.6,0.7-1.5,2.1c0.1,1.1,0.1,2.1,0.4,3.1c0.3,0.9-0.2,1.8-1,2.5c-1.1,1.1-2.5,1.6-4,2.1
				c-0.3,0.1-0.9,0.3-0.9,0.4c0.1,0.3,0.3,0.7,0.6,1c1.2,1,1.4,2.3,0.2,3.4c-0.9,0.8-2.1,1-3.4,0.7c-1.2-0.3-2.1-1-2.1-2.1
				c0-0.5,0.3-1.1,0.5-1.6c0.1-0.4,0.3-0.7,0.5-1c-1.6-0.3-2.9-0.5-4.3-0.9c-1.6-0.5-2.8-1.3-3.1-2.8c-0.1-0.5,0.1-0.9,0.1-1.4
				c0.1-0.5,0.3-1,0.2-1.5c-0.2-3.5-0.4-7.1-0.7-10.6c-0.2-3-0.3-5.9-0.5-8.9c-0.2-3.4-0.4-6.7-0.6-10.1c-0.2-3-0.4-6-0.5-9.1
				c0-0.7-0.2-1.5,0-2.1c0.6-1.9,2.2-2.9,4.3-3.4c0.2,0,0.3-0.1,0.5-0.1C25.8,8.3,26,8.2,26.2,8.2z M75.7,48.3c0-0.1,0-0.2,0-0.2
				c0.2-10.5,0.4-21.1,0.6-31.6c0-0.3-0.2-0.6-0.4-0.7c-0.8-0.4-1.6-0.8-2.4-1.1c-3.4-1.2-7-1.7-10.7-2c-5.6-0.5-11.2-0.4-16.8,0.4
				c-2.7,0.4-5.3,0.9-7.7,2c-1.2,0.6-1.8,1.3-1.4,2.5c0,0.1,0,0.3,0.1,0.5c0.3,4.2,0.6,8.3,0.9,12.5c0.4,4.8,0.7,9.7,1.1,14.5
				c0.1,0.9,0.1,1.7,0.2,2.6c5.9-2.2,12.1-2.4,18.3-2.3C63.7,45.4,69.9,45.9,75.7,48.3z M36.4,50.7c-0.1-0.6-0.1-1.2-0.2-1.7
				c-0.3-3.9-0.6-7.7-0.9-11.6c-0.3-3.9-0.6-7.7-0.9-11.6c-0.3-4.4-0.7-8.8-1-13.2c-0.1-1.4-0.9-2.1-2.2-2.6
				c-1.5-0.5-3.1-0.5-4.7-0.3c-1.4,0.2-2.6,0.6-3.5,1.6c-0.3,0.4-0.6,0.9-0.6,1.3c-0.1,0.7,0.1,1.4,0.1,2.1c0.2,3.3,0.4,6.7,0.6,10
				c0.2,3,0.3,5.9,0.5,8.9c0.3,4.3,0.5,8.7,0.8,13c0.1,1.8,0.2,3.5,0.4,5.3C28.6,50.1,32.4,49.7,36.4,50.7z M79,52.5
				c2-0.5,3.9-0.8,5.8-0.7c2,0.2,3.8,0.6,5.7,1.5c0-0.3,0-0.5,0-0.7c0.1-12.8,0.2-25.7,0.3-38.5c0-0.7-0.3-1.1-0.8-1.6
				c-1.8-1.9-7.4-1.9-9.4-0.3c-0.6,0.5-0.9,1-0.9,1.7c-0.3,12.6-0.5,25.2-0.8,37.8C79,52,79,52.2,79,52.5z M86.2,59.1
				c1.6-0.2,3.1-0.5,4.2-1.5c0.8-0.7,0.8-1.4,0.1-2.1c-0.5-0.5-1.1-0.9-1.7-1.2c-2-0.9-4.2-1.2-6.5-1c-1.4,0.1-2.8,0.3-4,1.1
				c-1.2,0.8-1.3,1.8-0.2,2.7c0.9,0.8,2.1,1.2,3.3,1.5c0-1.9,0.8-2.5,2.9-2.3C86.1,56.6,86.6,57.4,86.2,59.1z M29.5,57.5
				c-0.5-1.6,0-2.4,1.6-2.7c1.9-0.3,2.8,0.3,3.1,2.2c1.3-0.4,2.6-0.9,3.4-1.8c0.7-0.8,0.6-1.7-0.3-2.3c-0.5-0.3-1.1-0.6-1.7-0.8
				c-1.7-0.5-3.5-0.6-5.3-0.4c-1.8,0.2-3.6,0.7-5,1.9c-1.2,1-1.1,2.1,0.3,2.9C26.8,57.2,28.1,57.5,29.5,57.5z"/>
			<path class="st11" d="M75.7,48.3c-5.8-2.4-12-2.9-18.2-3c-6.2-0.1-12.4,0.1-18.3,2.3c-0.1-0.9-0.2-1.7-0.2-2.6
				c-0.4-4.8-0.7-9.7-1.1-14.5c-0.3-4.2-0.6-8.3-0.9-12.5c0-0.2,0-0.3-0.1-0.5c-0.4-1.2,0.2-2,1.4-2.5c2.4-1.1,5-1.7,7.7-2
				c5.6-0.8,11.2-0.8,16.8-0.4c3.6,0.3,7.3,0.8,10.7,2c0.8,0.3,1.6,0.7,2.4,1.1c0.2,0.1,0.5,0.5,0.4,0.7
				c-0.2,10.5-0.4,21.1-0.6,31.6C75.7,48.1,75.7,48.2,75.7,48.3z"/>
			<path class="st11" d="M36.4,50.7c-4.1-1-7.8-0.7-11.4,1.2c-0.1-1.8-0.2-3.6-0.4-5.3c-0.3-4.3-0.5-8.7-0.8-13
				c-0.2-3-0.3-5.9-0.5-8.9c-0.2-3.3-0.4-6.7-0.6-10c0-0.7-0.2-1.4-0.1-2.1c0-0.5,0.3-1,0.6-1.3c0.8-1,2.1-1.4,3.5-1.6
				c1.6-0.2,3.2-0.2,4.7,0.3c1.4,0.5,2.2,1.2,2.2,2.6c0.3,4.4,0.6,8.8,1,13.2c0.3,3.9,0.6,7.7,0.9,11.6c0.3,3.9,0.6,7.7,0.9,11.6
				C36.3,49.5,36.4,50.1,36.4,50.7z"/>
			<path class="st11" d="M79,52.5c0-0.3,0-0.5,0-0.7c0.3-12.6,0.6-25.2,0.8-37.8c0-0.7,0.3-1.2,0.9-1.7c2-1.6,7.6-1.6,9.4,0.3
				c0.5,0.5,0.8,1,0.8,1.6c-0.1,12.8-0.2,25.7-0.3,38.5c0,0.2,0,0.4,0,0.7c-1.8-0.9-3.7-1.4-5.7-1.5C82.8,51.7,80.9,52,79,52.5z"/>
			<path class="st6" d="M86.2,59.1c0.4-1.7-0.2-2.5-1.8-2.6c-2.1-0.2-2.8,0.4-2.9,2.3c-1.3-0.3-2.4-0.8-3.3-1.5
				c-1.1-0.9-1-1.9,0.2-2.7c1.2-0.8,2.6-1,4-1.1c2.3-0.2,4.4,0,6.5,1c0.6,0.3,1.2,0.7,1.7,1.2c0.7,0.7,0.7,1.4-0.1,2.1
				C89.3,58.6,87.8,58.9,86.2,59.1z"/>
			<path class="st6" d="M29.5,57.5c-1.4-0.1-2.7-0.3-3.8-0.9c-1.4-0.8-1.6-1.9-0.3-2.9c1.4-1.1,3.1-1.6,5-1.9
				c1.8-0.2,3.6-0.2,5.3,0.4c0.6,0.2,1.2,0.5,1.7,0.8c0.9,0.6,1,1.5,0.3,2.3c-0.9,1-2.1,1.5-3.4,1.8c-0.3-1.9-1.1-2.5-3.1-2.2
				C29.4,55.1,28.9,55.9,29.5,57.5z"/>
		</g>
	</g>
</g>
</svg>
