<?xml version="1.0" encoding="utf-8"?>
<!-- Generator: Adobe Illustrator 19.1.0, SVG Export Plug-In . SVG Version: 6.00 Build 0)  -->
<svg version="1.1" id="Capa_1" xmlns="http://www.w3.org/2000/svg" xmlns:xlink="http://www.w3.org/1999/xlink" x="0px" y="0px"
	 viewBox="0 0 113 67.6" style="enable-background:new 0 0 113 67.6;" xml:space="preserve">
<style type="text/css">
	.st0{fill:#1D3B5D;}
	.st1{fill:#072647;}
	.st2{fill:#4A996E;}
	.st3{fill:#2F7850;}
	.st4{fill:#F3E4D0;}
	.st5{fill:#FCBE24;}
	.st6{fill:#D08500;}
	.st7{fill:#FDDE6E;}
	.st8{fill:#FFFFFF;}
	.st9{fill:#187BC5;}
	.st10{fill:#05192B;}
	.st11{fill:#FFE7C5;}
	.st12{fill:#204F34;}
</style>
<g>
	<g>
		<path class="st0" d="M57.1,7.2c9.3,0,18.4,1.1,27.3,4.1c5.6,1.9,10.9,4.4,15.5,8.3c1.8,1.6,3.3,3.3,4.5,5.4
			c2.8,5.1,2.1,10-1.2,14.7c-2.4,3.3-5.7,5.7-9.2,7.7c-7,3.9-14.7,6-22.6,7.2c-9,1.3-18,1.4-27,0.2c-7.6-1-15-2.9-22-6.4
			c-4-2-7.7-4.4-10.5-8c-2.5-3.1-3.9-6.6-3.4-10.6c0.5-3.3,2.1-6.1,4.4-8.5c3.7-3.9,8.2-6.4,13.1-8.5c8.1-3.3,16.6-4.9,25.3-5.4
			c1-0.1,2-0.1,3-0.1C55.1,7.2,56.1,7.2,57.1,7.2z M57.1,53.7c3.6-0.3,7.2-0.4,10.8-0.8c7.7-0.9,15.1-2.8,22-6.4
			c3.5-1.8,6.7-4.1,9.2-7.3c3.3-4.3,3.9-8.9,1.2-13.7c-1.2-2.1-2.8-3.8-4.7-5.3c-4-3.3-8.7-5.5-13.6-7.1C72.6,9.9,62.8,9,52.9,9.4
			c-9.2,0.4-18.1,2-26.5,5.9c-4.1,1.9-7.9,4.2-10.8,7.7c-3,3.6-4.2,7.5-2.7,12.1c0.8,2.5,2.3,4.5,4.2,6.3c3.7,3.6,8.2,5.9,12.9,7.6
			C38.7,52.3,47.8,53.4,57.1,53.7z"/>
		<path class="st0" d="M77.3,55.6c0,1.3,0,2.5,0,3.6c0,0.2-0.4,0.5-0.7,0.5c-1.4,0.3-1.4,0.3-1.4-1.1c0-0.6,0.1-1.2,0-1.7
			c-0.1-0.8,0.2-1.1,1-1.2C76.5,55.8,76.9,55.7,77.3,55.6z"/>
		<path class="st0" d="M53.9,59.6c0-0.2,0-0.5,0-0.7c0-1.2,0.6-1.6,1.8-1.2c0.2,0.1,0.3,0.3,0.3,0.5c0,1,0,2,0,3
			c0,0.2-0.4,0.5-0.5,0.5c-1.9,0-1.5,0.2-1.5-1.4C53.9,60,53.9,59.8,53.9,59.6z"/>
		<path class="st0" d="M73.1,56.4c0,1.3,0,2.5,0,3.6c0,0.2-0.2,0.4-0.4,0.5C71.2,61,71,60.8,71,59.3c0-0.6,0-1.2,0-1.8
			c-0.1-0.6,0.2-0.9,0.8-0.9C72.2,56.5,72.5,56.5,73.1,56.4z"/>
		<path class="st0" d="M51.6,61.5c-0.5,0-1,0-1.4-0.1c-0.2,0-0.5-0.4-0.5-0.6c-0.1-1,0-2,0-3c0-0.4,0.2-0.5,0.6-0.5
			c1.6,0,1.6,0,1.6,1.5c0,0.8,0,1.6,0,2.3C51.7,61.3,51.7,61.4,51.6,61.5z"/>
		<path class="st0" d="M39,60c-0.7-0.1-1.3-0.2-1.8-0.4c-0.1,0-0.2-0.2-0.3-0.3c0-1.2,0-2.4,0-3.5c0.2-0.1,0.2-0.1,0.3-0.1
			c1.8,0.2,1.8,0.2,1.8,2.1C39,58.4,39,59.1,39,60z"/>
		<path class="st0" d="M34.7,59c-0.7-0.2-1.2-0.3-1.7-0.4c-0.2-0.1-0.4-0.3-0.4-0.4c0-1.2,0-2.3,0-3.6c0.7,0.2,1.2,0.3,1.8,0.4
			c0.1,0,0.3,0.3,0.3,0.4C34.7,56.6,34.7,57.7,34.7,59z"/>
		<path class="st0" d="M90.1,51.7c0,1.3,0,2.4,0,3.4c0,0.2-0.1,0.4-0.2,0.4c-0.5,0.3-1.1,0.5-1.8,0.8c0-1.3,0-2.5,0-3.6
			c0-0.1,0.2-0.3,0.3-0.4C88.9,52.2,89.4,52,90.1,51.7z"/>
		<path class="st0" d="M60.3,59.6c0,0.2,0,0.4,0,0.6c0,1.4-0.3,1.6-1.7,1.4c-0.2,0-0.4-0.3-0.4-0.5c0-1-0.1-2,0-3
			c0-0.2,0.3-0.5,0.5-0.5c1.5-0.2,1.6-0.2,1.6,1.4C60.3,59.2,60.3,59.4,60.3,59.6z"/>
		<path class="st0" d="M68.8,57c0,1.3,0,2.5,0,3.7c0,0.1-0.2,0.3-0.4,0.4c-0.2,0.1-0.5,0.1-0.7,0.1c-0.7,0.2-1.1,0-1-0.9
			c0.1-0.7,0-1.5,0-2.3c0-0.6,0.1-1,0.8-1C67.9,57.1,68.3,57,68.8,57z"/>
		<path class="st0" d="M45.4,57.1c0.2-0.1,0.2-0.1,0.3-0.1c2.2,0.2,1.7-0.2,1.8,1.8c0,0.6,0,1.2,0,1.8c0,0.4-0.1,0.6-0.6,0.5
			c0,0-0.1,0-0.1,0c-1.4-0.1-1.4-0.1-1.4-1.5C45.4,58.8,45.4,58,45.4,57.1z"/>
		<path class="st0" d="M64.5,61.3c-2,0.4-2,0.4-2-1.6c0-0.5,0-1.1,0-1.6c0-0.5,0.1-0.7,0.6-0.7c1.7-0.1,1.5-0.3,1.5,1.3
			c0,0.8,0,1.6,0,2.3C64.5,61.2,64.5,61.3,64.5,61.3z"/>
		<path class="st0" d="M81.6,54.6c0,1.3,0,2.5,0,3.6c0,0.2-0.2,0.4-0.3,0.5c-0.5,0.2-1.1,0.3-1.8,0.5c0-1.3,0-2.6,0-3.8
			c0-0.1,0.2-0.3,0.4-0.4C80.4,54.8,81,54.7,81.6,54.6z"/>
		<path class="st0" d="M43.3,60.6c-2.1,0-2.1,0-2.1-1.9c0-0.7,0-1.5,0-2.3c0.7,0.1,1.2,0.1,1.7,0.3c0.1,0,0.3,0.3,0.4,0.4
			c0.1,0.1,0,0.3,0,0.5C43.3,58.5,43.3,59.5,43.3,60.6z"/>
		<path class="st0" d="M85.8,53.3c0,1.3,0,2.5,0,3.7c0,0.1-0.1,0.3-0.3,0.3c-0.5,0.2-1.1,0.4-1.8,0.6c0-1.3,0-2.5,0-3.7
			c0-0.1,0.2-0.3,0.3-0.4C84.6,53.7,85.2,53.5,85.8,53.3z"/>
		<path class="st0" d="M92.3,54.5c0-1.3,0-2.4,0-3.5c0-0.1,0.2-0.3,0.3-0.4c0.5-0.3,1-0.5,1.7-0.8c0,1.2,0,2.3,0,3.3
			c0,0.2-0.3,0.4-0.5,0.5C93.4,53.9,92.9,54.2,92.3,54.5z"/>
		<path class="st0" d="M28.4,53.3c0.7,0.2,1.3,0.4,1.8,0.6c0.1,0,0.3,0.3,0.3,0.4c0,1.1,0,2.2,0,3.5c-0.7-0.3-1.3-0.4-1.9-0.7
			c-0.1,0-0.2-0.2-0.2-0.4C28.4,55.7,28.4,54.6,28.4,53.3z"/>
		<path class="st0" d="M24.1,51.7c0.7,0.3,1.2,0.4,1.7,0.7c0.2,0.1,0.3,0.3,0.3,0.5c0,1.1,0,2.1,0,3.3c-0.7-0.3-1.3-0.5-1.8-0.8
			c-0.1-0.1-0.3-0.3-0.3-0.4C24.1,54,24.1,52.9,24.1,51.7z"/>
		<path class="st0" d="M19.9,49.8c0.7,0.4,1.3,0.6,1.8,0.9c0.1,0.1,0.2,0.2,0.2,0.4c0,1,0,2,0,3.2c-0.7-0.4-1.3-0.8-1.9-1.1
			c-0.1-0.1-0.2-0.2-0.2-0.3C19.9,51.9,19.9,50.9,19.9,49.8z"/>
		<path class="st0" d="M96.6,51.7c0-1,0-1.9,0-2.9c0-0.2,0.3-0.4,0.5-0.5c0.4-0.3,0.9-0.6,1.5-0.9c0,1.1,0.2,2.1-0.1,3
			c-0.2,0.6-1.1,1.1-1.7,1.6C96.8,51.8,96.7,51.8,96.6,51.7z"/>
		<path class="st0" d="M17.6,51.4c-1.9-0.9-2.4-1.9-1.9-3.9C17.5,48,18.1,49.2,17.6,51.4z"/>
		<path class="st0" d="M102.8,44.3c0.6,1.9-0.5,3-1.8,4C100.3,46.7,101.2,44.8,102.8,44.3z"/>
		<path class="st0" d="M13.3,48c-1-1.1-2.4-1.9-1.9-3.6C13.1,44.9,13.7,46,13.3,48z"/>
		<path class="st0" d="M107.1,39.4c-0.6,1.2-1.2,2.4-1.8,3.7c-0.1,0-0.2,0-0.3-0.1c0.1-0.5,0-1,0.2-1.4c0.5-0.8,1.1-1.5,1.7-2.2
			C107,39.4,107.1,39.4,107.1,39.4z"/>
		<path class="st0" d="M58.2,51.6c-8.9,0-16.6-1-24.1-3.4c-5.3-1.7-10.3-4-14.3-7.9c-1.8-1.7-3.2-3.7-3.9-6.1
			c-1.1-3.8-0.1-7.1,2.3-10c2.2-2.8,5.1-4.9,8.3-6.5c6-3.1,12.4-4.8,19-5.7c7.3-1,14.7-1.1,22.1-0.2c7.9,1,15.5,2.9,22.4,7
			c2.1,1.3,4.1,2.8,5.7,4.7c4.3,4.9,4.3,10.8-0.1,15.7c-3,3.3-6.7,5.5-10.7,7.2C76,50.2,66.7,51.5,58.2,51.6z"/>
	</g>
	<g>
		<path class="st1" d="M56.5,63.8c-9.1-0.1-18.1-1-26.8-3.7c-5.6-1.7-10.8-4-15.5-7.7c-5.2-4.1-8.7-9.2-9.2-16
			c-0.2-2.4-0.2-4.8,0.1-7.2c0.6-4.3,3.1-7.6,6.2-10.4c4.7-4.3,10.2-7,16.2-9c11.8-4,24.1-5.2,36.5-4.4c8.1,0.5,16,1.9,23.7,4.7
			c5.6,2,10.8,4.6,15.2,8.6c3.1,2.8,5.6,6.1,6.2,10.3c0.9,5.4,0.5,10.7-2,15.6c-1.7,3.4-4.4,6.1-7.4,8.3c-5.5,4-11.7,6.4-18.2,8
			C73.3,63.1,64.9,63.8,56.5,63.8z M57.1,7.2c-1,0-2,0-3,0c-1,0-2,0.1-3,0.1c-8.7,0.5-17.2,2.1-25.3,5.4c-4.9,2-9.4,4.6-13.1,8.5
			c-2.3,2.4-3.9,5.2-4.4,8.5c-0.6,4.1,0.9,7.5,3.4,10.6c2.8,3.5,6.5,6,10.5,8c6.9,3.5,14.3,5.4,22,6.4c9,1.2,18,1.2,27-0.2
			c7.9-1.2,15.6-3.3,22.6-7.2c3.6-2,6.8-4.4,9.2-7.7c3.4-4.6,4-9.5,1.2-14.7c-1.1-2.1-2.7-3.8-4.5-5.4c-4.5-4-9.8-6.5-15.5-8.3
			C75.5,8.4,66.4,7.2,57.1,7.2z M77.3,55.6c-0.5,0.1-0.8,0.2-1.1,0.2c-0.8,0-1.1,0.4-1,1.2c0.1,0.6,0,1.1,0,1.7c0,1.4,0,1.4,1.4,1.1
			c0.3-0.1,0.7-0.3,0.7-0.5C77.4,58.1,77.3,56.9,77.3,55.6z M53.9,59.6c0,0.2,0,0.4,0,0.6c0,1.6-0.3,1.4,1.5,1.4
			c0.2,0,0.5-0.3,0.5-0.5c0.1-1,0-2,0-3c0-0.2-0.2-0.5-0.3-0.5c-1.2-0.4-1.8,0-1.8,1.2C53.9,59.1,53.9,59.3,53.9,59.6z M73.1,56.4
			c-0.5,0.1-0.9,0.1-1.3,0.2c-0.6,0-0.9,0.3-0.8,0.9c0,0.6,0,1.2,0,1.8c0,1.5,0.2,1.7,1.7,1.2c0.2-0.1,0.4-0.3,0.4-0.5
			C73.1,58.9,73.1,57.7,73.1,56.4z M51.6,61.5c0.1-0.1,0.1-0.2,0.1-0.3c0-0.8,0-1.6,0-2.3c0-1.5,0-1.5-1.6-1.5
			c-0.4,0-0.6,0.1-0.6,0.5c0,1,0,2,0,3c0,0.2,0.3,0.5,0.5,0.6C50.7,61.5,51.2,61.5,51.6,61.5z M39,60c0-0.8,0-1.5,0-2.2
			c0-1.9,0-1.9-1.8-2.1c0,0-0.1,0-0.3,0.1c0,1.1,0,2.3,0,3.5c0,0.1,0.1,0.3,0.3,0.3C37.7,59.7,38.3,59.8,39,60z M34.7,59
			c0-1.3,0-2.4,0-3.6c0-0.2-0.2-0.4-0.3-0.4c-0.5-0.2-1.1-0.3-1.8-0.4c0,1.3,0,2.4,0,3.6c0,0.1,0.2,0.4,0.4,0.4
			C33.5,58.7,34.1,58.8,34.7,59z M90.1,51.7c-0.7,0.3-1.2,0.4-1.8,0.7c-0.1,0.1-0.3,0.3-0.3,0.4c0,1.2,0,2.3,0,3.6
			c0.7-0.3,1.3-0.5,1.8-0.8c0.1-0.1,0.2-0.3,0.2-0.4C90.1,54.1,90.1,53,90.1,51.7z M60.3,59.6c0-0.2,0-0.4,0-0.6
			c0-1.6,0-1.6-1.6-1.4c-0.2,0-0.5,0.3-0.5,0.5c-0.1,1,0,2,0,3c0,0.2,0.2,0.5,0.4,0.5c1.4,0.3,1.7,0,1.7-1.4
			C60.3,60,60.3,59.8,60.3,59.6z M68.8,57c-0.5,0-0.9,0.1-1.3,0.1c-0.7,0-0.9,0.3-0.8,1c0,0.8,0.1,1.5,0,2.3c-0.1,0.8,0.3,1,1,0.9
			c0.2,0,0.5,0,0.7-0.1c0.2-0.1,0.4-0.2,0.4-0.4C68.8,59.5,68.8,58.3,68.8,57z M45.4,57.1c0,0.9,0,1.7,0,2.6c0,1.4,0,1.4,1.4,1.5
			c0,0,0.1,0,0.1,0c0.4,0.1,0.6-0.1,0.6-0.5c0-0.6,0-1.2,0-1.8c0-2,0.4-1.6-1.8-1.8C45.7,57,45.6,57,45.4,57.1z M64.5,61.3
			c0-0.1,0.1-0.1,0.1-0.2c0-0.8,0-1.6,0-2.3c0-1.6,0.3-1.4-1.5-1.3c-0.5,0-0.6,0.2-0.6,0.7c0,0.5,0,1.1,0,1.6
			C62.5,61.7,62.5,61.7,64.5,61.3z M81.6,54.6C81,54.7,80.4,54.8,80,55c-0.2,0.1-0.4,0.2-0.4,0.4c0,1.2,0,2.4,0,3.8
			c0.7-0.2,1.2-0.3,1.8-0.5c0.1,0,0.3-0.3,0.3-0.5C81.6,57,81.6,55.9,81.6,54.6z M43.3,60.6c0-1.1,0-2.1,0-3.1c0-0.2,0-0.3,0-0.5
			c-0.1-0.2-0.2-0.4-0.4-0.4c-0.5-0.1-1.1-0.2-1.7-0.3c0,0.9,0,1.6,0,2.3C41.2,60.6,41.2,60.6,43.3,60.6z M85.8,53.3
			c-0.7,0.2-1.2,0.4-1.7,0.6c-0.1,0.1-0.3,0.2-0.3,0.4c0,1.2,0,2.4,0,3.7c0.7-0.2,1.3-0.4,1.8-0.6c0.1,0,0.3-0.2,0.3-0.3
			C85.9,55.8,85.8,54.6,85.8,53.3z M92.3,54.5c0.6-0.3,1.1-0.6,1.6-0.9c0.2-0.1,0.5-0.3,0.5-0.5c0-1.1,0-2.1,0-3.3
			c-0.7,0.3-1.2,0.6-1.7,0.8c-0.1,0.1-0.3,0.3-0.3,0.4C92.3,52.1,92.3,53.2,92.3,54.5z M28.4,53.3c0,1.2,0,2.4,0,3.5
			c0,0.1,0.1,0.3,0.2,0.4c0.6,0.2,1.1,0.4,1.9,0.7c0-1.3,0-2.4,0-3.5c0-0.1-0.1-0.4-0.3-0.4C29.6,53.7,29.1,53.5,28.4,53.3z
			 M24.1,51.7c0,1.2,0,2.2,0,3.3c0,0.1,0.1,0.4,0.3,0.4c0.5,0.3,1.1,0.5,1.8,0.8c0-1.2,0-2.3,0-3.3c0-0.2-0.2-0.4-0.3-0.5
			C25.3,52.2,24.8,52,24.1,51.7z M19.9,49.8c0,1.1,0,2.1,0,3c0,0.1,0.1,0.3,0.2,0.3c0.6,0.4,1.1,0.7,1.9,1.1c0-1.2,0-2.2,0-3.2
			c0-0.1-0.1-0.3-0.2-0.4C21.1,50.4,20.6,50.1,19.9,49.8z M96.6,51.7c0.1,0,0.2,0.1,0.3,0.1c0.6-0.5,1.5-0.9,1.7-1.6
			c0.3-0.8,0.1-1.9,0.1-3c-0.6,0.4-1.1,0.6-1.5,0.9c-0.2,0.1-0.5,0.4-0.5,0.5C96.6,49.8,96.6,50.8,96.6,51.7z M17.6,51.4
			c0.5-2.3-0.1-3.4-1.9-3.9C15.2,49.5,15.7,50.5,17.6,51.4z M102.8,44.3c-1.6,0.5-2.5,2.3-1.8,4C102.3,47.3,103.4,46.2,102.8,44.3z
			 M13.3,48c0.4-2-0.2-3.1-1.9-3.6C10.9,46.1,12.3,46.8,13.3,48z M107.1,39.4c-0.1,0-0.1-0.1-0.2-0.1c-0.6,0.7-1.2,1.4-1.7,2.2
			c-0.2,0.4-0.2,1-0.2,1.4c0.1,0,0.2,0,0.3,0.1C106,41.9,106.6,40.7,107.1,39.4z"/>
		<path class="st1" d="M57.1,53.7C47.8,53.4,38.7,52.3,30,49c-4.7-1.8-9.2-4.1-12.9-7.6c-1.8-1.8-3.4-3.8-4.2-6.3
			c-1.5-4.6-0.2-8.5,2.7-12.1c2.9-3.5,6.7-5.8,10.8-7.7c8.4-3.8,17.3-5.5,26.5-5.9C62.8,9,72.6,9.9,82.1,13
			c4.9,1.6,9.6,3.8,13.6,7.1c1.8,1.5,3.5,3.2,4.7,5.3c2.7,4.8,2.1,9.4-1.2,13.7c-2.4,3.2-5.7,5.4-9.2,7.3c-6.9,3.6-14.3,5.5-22,6.4
			C64.3,53.3,60.7,53.4,57.1,53.7z M58.2,51.6c8.5-0.1,17.8-1.4,26.6-5.1c4-1.7,7.7-3.9,10.7-7.2c4.4-4.9,4.4-10.8,0.1-15.7
			c-1.7-1.9-3.6-3.4-5.7-4.7c-6.9-4.1-14.5-6-22.4-7C60.1,10.9,52.8,11,45.4,12c-6.6,0.9-13,2.6-19,5.7c-3.2,1.6-6.1,3.7-8.3,6.5
			c-2.3,3-3.4,6.3-2.3,10c0.7,2.4,2.1,4.4,3.9,6.1c4.1,3.9,9.1,6.2,14.3,7.9C41.6,50.6,49.3,51.6,58.2,51.6z"/>
	</g>
</g>
<g id="Comprobar">
	<polygon class="st1" points="52.2,32.5 45.1,25.1 37.1,32.7 37.1,32.7 52.1,47 77.3,22.8 71.5,17.2 	"/>
	<polygon class="st8" points="52.2,30.7 45.1,24.4 37.1,30.8 37.1,30.8 52.1,43 77.3,22.5 71.5,17.7 	"/>
</g>
</svg>
