<?xml version="1.0" encoding="utf-8"?>
<!-- Generator: Adobe Illustrator 19.1.0, SVG Export Plug-In . SVG Version: 6.00 Build 0)  -->
<svg version="1.1" id="Capa_1" xmlns="http://www.w3.org/2000/svg" xmlns:xlink="http://www.w3.org/1999/xlink" x="0px" y="0px"
	 viewBox="0 0 113 67.6" style="enable-background:new 0 0 113 67.6;" xml:space="preserve">
<style type="text/css">
	.st0{fill:#1D3B5D;}
	.st1{fill:#072647;}
	.st2{fill:#4A996E;}
	.st3{fill:#2F7850;}
	.st4{fill:#F3E4D0;}
	.st5{fill:#FCBE24;}
	.st6{fill:#D08500;}
	.st7{fill:#FDDE6E;}
	.st8{fill:#FFFFFF;}
	.st9{fill:#187BC5;}
	.st10{fill:#05192B;}
	.st11{fill:#FFE7C5;}
	.st12{fill:#204F34;}
</style>
<g>
	<g>
		<path class="st2" d="M57.1,4.7c9.3,0,18.4,1.1,27.3,4.1c5.6,1.9,10.9,4.4,15.5,8.3c1.8,1.6,3.3,3.3,4.5,5.4
			c2.8,5.1,2.1,10-1.2,14.7c-2.4,3.3-5.7,5.7-9.2,7.7c-7,3.9-14.7,6-22.6,7.2c-9,1.3-18,1.4-27,0.2c-7.6-1-15-2.9-22-6.4
			c-4-2-7.7-4.4-10.5-8c-2.5-3.1-3.9-6.6-3.4-10.6c0.5-3.3,2.1-6.1,4.4-8.5c3.7-3.9,8.2-6.4,13.1-8.5C33.9,7,42.4,5.4,51.2,4.9
			c1-0.1,2-0.1,3-0.1C55.1,4.7,56.1,4.7,57.1,4.7z M57.1,51.2c3.6-0.3,7.2-0.4,10.8-0.8c7.7-0.9,15.1-2.8,22-6.4
			c3.5-1.8,6.7-4.1,9.2-7.3c3.3-4.3,3.9-8.9,1.2-13.7c-1.2-2.1-2.8-3.8-4.7-5.3c-4-3.3-8.7-5.5-13.6-7.1c-9.5-3.1-19.3-4.1-29.2-3.6
			c-9.2,0.4-18.1,2-26.5,5.9c-4.1,1.9-7.9,4.2-10.8,7.7c-3,3.6-4.2,7.5-2.7,12.1c0.8,2.5,2.3,4.5,4.2,6.3c3.7,3.6,8.2,5.9,12.9,7.6
			C38.7,49.8,47.8,51,57.1,51.2z"/>
		<path class="st2" d="M77.3,53.1c0,1.3,0,2.5,0,3.6c0,0.2-0.4,0.5-0.7,0.5c-1.4,0.3-1.4,0.3-1.4-1.1c0-0.6,0.1-1.2,0-1.7
			c-0.1-0.8,0.2-1.1,1-1.2C76.5,53.3,76.9,53.2,77.3,53.1z"/>
		<path class="st2" d="M53.9,57.1c0-0.2,0-0.5,0-0.7c0-1.2,0.6-1.6,1.8-1.2c0.2,0.1,0.3,0.3,0.3,0.5c0,1,0,2,0,3
			c0,0.2-0.4,0.5-0.5,0.5c-1.9,0-1.5,0.2-1.5-1.4C53.9,57.5,53.9,57.3,53.9,57.1z"/>
		<path class="st2" d="M73.1,53.9c0,1.3,0,2.5,0,3.6c0,0.2-0.2,0.4-0.4,0.5c-1.4,0.5-1.7,0.3-1.7-1.2c0-0.6,0-1.2,0-1.8
			c-0.1-0.6,0.2-0.9,0.8-0.9C72.2,54,72.5,54,73.1,53.9z"/>
		<path class="st2" d="M51.6,59c-0.5,0-1,0-1.4-0.1c-0.2,0-0.5-0.4-0.5-0.6c-0.1-1,0-2,0-3c0-0.4,0.2-0.5,0.6-0.5
			c1.6,0,1.6,0,1.6,1.5c0,0.8,0,1.6,0,2.3C51.7,58.8,51.7,58.9,51.6,59z"/>
		<path class="st2" d="M39,57.5c-0.7-0.1-1.3-0.2-1.8-0.4c-0.1,0-0.2-0.2-0.3-0.3c0-1.2,0-2.4,0-3.5c0.2-0.1,0.2-0.1,0.3-0.1
			c1.8,0.2,1.8,0.2,1.8,2.1C39,56,39,56.6,39,57.5z"/>
		<path class="st2" d="M34.7,56.5c-0.7-0.2-1.2-0.3-1.7-0.4c-0.2-0.1-0.4-0.3-0.4-0.4c0-1.2,0-2.3,0-3.6c0.7,0.2,1.2,0.3,1.8,0.4
			c0.1,0,0.3,0.3,0.3,0.4C34.7,54.1,34.7,55.2,34.7,56.5z"/>
		<path class="st2" d="M90.1,49.2c0,1.3,0,2.4,0,3.4c0,0.2-0.1,0.4-0.2,0.4c-0.5,0.3-1.1,0.5-1.8,0.8c0-1.3,0-2.5,0-3.6
			c0-0.1,0.2-0.3,0.3-0.4C88.9,49.7,89.4,49.5,90.1,49.2z"/>
		<path class="st2" d="M60.3,57.1c0,0.2,0,0.4,0,0.6c0,1.4-0.3,1.6-1.7,1.4c-0.2,0-0.4-0.3-0.4-0.5c0-1-0.1-2,0-3
			c0-0.2,0.3-0.5,0.5-0.5c1.5-0.2,1.6-0.2,1.6,1.4C60.3,56.7,60.3,56.9,60.3,57.1z"/>
		<path class="st2" d="M68.8,54.5c0,1.3,0,2.5,0,3.7c0,0.1-0.2,0.3-0.4,0.4c-0.2,0.1-0.5,0.1-0.7,0.1c-0.7,0.2-1.1,0-1-0.9
			c0.1-0.7,0-1.5,0-2.3c0-0.6,0.1-1,0.8-1C67.9,54.6,68.3,54.5,68.8,54.5z"/>
		<path class="st2" d="M45.4,54.6c0.2-0.1,0.2-0.1,0.3-0.1c2.2,0.2,1.7-0.2,1.8,1.8c0,0.6,0,1.2,0,1.8c0,0.4-0.1,0.6-0.6,0.5
			c0,0-0.1,0-0.1,0c-1.4-0.1-1.4-0.1-1.4-1.5C45.4,56.3,45.4,55.5,45.4,54.6z"/>
		<path class="st2" d="M64.5,58.8c-2,0.4-2,0.4-2-1.6c0-0.5,0-1.1,0-1.6c0-0.5,0.1-0.7,0.6-0.7c1.7-0.1,1.5-0.3,1.5,1.3
			c0,0.8,0,1.6,0,2.3C64.5,58.7,64.5,58.8,64.5,58.8z"/>
		<path class="st2" d="M81.6,52.1c0,1.3,0,2.5,0,3.6c0,0.2-0.2,0.4-0.3,0.5c-0.5,0.2-1.1,0.3-1.8,0.5c0-1.3,0-2.6,0-3.8
			c0-0.1,0.2-0.3,0.4-0.4C80.4,52.3,81,52.2,81.6,52.1z"/>
		<path class="st2" d="M43.3,58.1c-2.1,0-2.1,0-2.1-1.9c0-0.7,0-1.5,0-2.3c0.7,0.1,1.2,0.1,1.7,0.3c0.1,0,0.3,0.3,0.4,0.4
			c0.1,0.1,0,0.3,0,0.5C43.3,56,43.3,57.1,43.3,58.1z"/>
		<path class="st2" d="M85.8,50.8c0,1.3,0,2.5,0,3.7c0,0.1-0.1,0.3-0.3,0.3c-0.5,0.2-1.1,0.4-1.8,0.6c0-1.3,0-2.5,0-3.7
			c0-0.1,0.2-0.3,0.3-0.4C84.6,51.2,85.2,51,85.8,50.8z"/>
		<path class="st2" d="M92.3,52c0-1.3,0-2.4,0-3.5c0-0.1,0.2-0.3,0.3-0.4c0.5-0.3,1-0.5,1.7-0.8c0,1.2,0,2.3,0,3.3
			c0,0.2-0.3,0.4-0.5,0.5C93.4,51.4,92.9,51.7,92.3,52z"/>
		<path class="st2" d="M28.4,50.8c0.7,0.2,1.3,0.4,1.8,0.6c0.1,0,0.3,0.3,0.3,0.4c0,1.1,0,2.2,0,3.5c-0.7-0.3-1.3-0.4-1.9-0.7
			c-0.1,0-0.2-0.2-0.2-0.4C28.4,53.2,28.4,52.1,28.4,50.8z"/>
		<path class="st2" d="M24.1,49.2c0.7,0.3,1.2,0.4,1.7,0.7c0.2,0.1,0.3,0.3,0.3,0.5c0,1.1,0,2.1,0,3.3c-0.7-0.3-1.3-0.5-1.8-0.8
			c-0.1-0.1-0.3-0.3-0.3-0.4C24.1,51.5,24.1,50.5,24.1,49.2z"/>
		<path class="st2" d="M19.9,47.3c0.7,0.4,1.3,0.6,1.8,0.9c0.1,0.1,0.2,0.2,0.2,0.4c0,1,0,2,0,3.2c-0.7-0.4-1.3-0.8-1.9-1.1
			c-0.1-0.1-0.2-0.2-0.2-0.3C19.9,49.4,19.9,48.4,19.9,47.3z"/>
		<path class="st2" d="M96.6,49.2c0-1,0-1.9,0-2.9c0-0.2,0.3-0.4,0.5-0.5c0.4-0.3,0.9-0.6,1.5-0.9c0,1.1,0.2,2.1-0.1,3
			c-0.2,0.6-1.1,1.1-1.7,1.6C96.8,49.3,96.7,49.3,96.6,49.2z"/>
		<path class="st2" d="M17.6,49C15.7,48,15.2,47,15.7,45C17.5,45.6,18.1,46.7,17.6,49z"/>
		<path class="st2" d="M102.8,41.8c0.6,1.9-0.5,3-1.8,4C100.3,44.2,101.2,42.3,102.8,41.8z"/>
		<path class="st2" d="M13.3,45.5c-1-1.1-2.4-1.9-1.9-3.6C13.1,42.4,13.7,43.5,13.3,45.5z"/>
		<path class="st2" d="M107.1,36.9c-0.6,1.2-1.2,2.4-1.8,3.7c-0.1,0-0.2,0-0.3-0.1c0.1-0.5,0-1,0.2-1.4c0.5-0.8,1.1-1.5,1.7-2.2
			C107,36.9,107.1,36.9,107.1,36.9z"/>
		<path class="st2" d="M58.2,49.1c-8.9,0-16.6-1-24.1-3.4c-5.3-1.7-10.3-4-14.3-7.9c-1.8-1.7-3.2-3.7-3.9-6.1
			c-1.1-3.8-0.1-7.1,2.3-10c2.2-2.8,5.1-4.9,8.3-6.5c6-3.1,12.4-4.8,19-5.7c7.3-1,14.7-1.1,22.1-0.2c7.9,1,15.5,2.9,22.4,7
			c2.1,1.3,4.1,2.8,5.7,4.7c4.3,4.9,4.3,10.8-0.1,15.7c-3,3.3-6.7,5.5-10.7,7.2C76,47.7,66.7,49,58.2,49.1z"/>
	</g>
	<g>
		<path class="st3" d="M56.5,61.3c-9.1-0.1-18.1-1-26.8-3.7c-5.6-1.7-10.8-4-15.5-7.7c-5.2-4.1-8.7-9.2-9.2-16
			c-0.2-2.4-0.2-4.8,0.1-7.2c0.6-4.3,3.1-7.6,6.2-10.4c4.7-4.3,10.2-7,16.2-9c11.8-4,24.1-5.2,36.5-4.4c8.1,0.5,16,1.9,23.7,4.7
			c5.6,2,10.8,4.6,15.2,8.6c3.1,2.8,5.6,6.1,6.2,10.3c0.9,5.4,0.5,10.7-2,15.6c-1.7,3.4-4.4,6.1-7.4,8.3c-5.5,4-11.7,6.4-18.2,8
			C73.3,60.6,64.9,61.3,56.5,61.3z M57.1,4.7c-1,0-2,0-3,0c-1,0-2,0.1-3,0.1C42.4,5.4,33.9,7,25.8,10.3c-4.9,2-9.4,4.6-13.1,8.5
			c-2.3,2.4-3.9,5.2-4.4,8.5c-0.6,4.1,0.9,7.5,3.4,10.6c2.8,3.5,6.5,6,10.5,8c6.9,3.5,14.3,5.4,22,6.4c9,1.2,18,1.2,27-0.2
			c7.9-1.2,15.6-3.3,22.6-7.2c3.6-2,6.8-4.4,9.2-7.7c3.4-4.6,4-9.5,1.2-14.7c-1.1-2.1-2.7-3.8-4.5-5.4c-4.5-4-9.8-6.5-15.5-8.3
			C75.5,5.9,66.4,4.7,57.1,4.7z M77.3,53.1c-0.5,0.1-0.8,0.2-1.1,0.2c-0.8,0-1.1,0.4-1,1.2c0.1,0.6,0,1.1,0,1.7c0,1.4,0,1.4,1.4,1.1
			c0.3-0.1,0.7-0.3,0.7-0.5C77.4,55.6,77.3,54.4,77.3,53.1z M53.9,57.1c0,0.2,0,0.4,0,0.6c0,1.6-0.3,1.4,1.5,1.4
			c0.2,0,0.5-0.3,0.5-0.5c0.1-1,0-2,0-3c0-0.2-0.2-0.5-0.3-0.5c-1.2-0.4-1.8,0-1.8,1.2C53.9,56.6,53.9,56.8,53.9,57.1z M73.1,53.9
			c-0.5,0.1-0.9,0.1-1.3,0.2c-0.6,0-0.9,0.3-0.8,0.9c0,0.6,0,1.2,0,1.8c0,1.5,0.2,1.7,1.7,1.2c0.2-0.1,0.4-0.3,0.4-0.5
			C73.1,56.4,73.1,55.2,73.1,53.9z M51.6,59c0.1-0.1,0.1-0.2,0.1-0.3c0-0.8,0-1.6,0-2.3c0-1.5,0-1.5-1.6-1.5c-0.4,0-0.6,0.1-0.6,0.5
			c0,1,0,2,0,3c0,0.2,0.3,0.5,0.5,0.6C50.7,59,51.2,59,51.6,59z M39,57.5c0-0.8,0-1.5,0-2.2c0-1.9,0-1.9-1.8-2.1c0,0-0.1,0-0.3,0.1
			c0,1.1,0,2.3,0,3.5c0,0.1,0.1,0.3,0.3,0.3C37.7,57.2,38.3,57.3,39,57.5z M34.7,56.5c0-1.3,0-2.4,0-3.6c0-0.2-0.2-0.4-0.3-0.4
			c-0.5-0.2-1.1-0.3-1.8-0.4c0,1.3,0,2.4,0,3.6c0,0.1,0.2,0.4,0.4,0.4C33.5,56.2,34.1,56.3,34.7,56.5z M90.1,49.2
			c-0.7,0.3-1.2,0.4-1.8,0.7c-0.1,0.1-0.3,0.3-0.3,0.4c0,1.2,0,2.3,0,3.6c0.7-0.3,1.3-0.5,1.8-0.8c0.1-0.1,0.2-0.3,0.2-0.4
			C90.1,51.6,90.1,50.5,90.1,49.2z M60.3,57.1c0-0.2,0-0.4,0-0.6c0-1.6,0-1.6-1.6-1.4c-0.2,0-0.5,0.3-0.5,0.5c-0.1,1,0,2,0,3
			c0,0.2,0.2,0.5,0.4,0.5c1.4,0.3,1.7,0,1.7-1.4C60.3,57.5,60.3,57.3,60.3,57.1z M68.8,54.5c-0.5,0-0.9,0.1-1.3,0.1
			c-0.7,0-0.9,0.3-0.8,1c0,0.8,0.1,1.5,0,2.3c-0.1,0.8,0.3,1,1,0.9c0.2,0,0.5,0,0.7-0.1c0.2-0.1,0.4-0.2,0.4-0.4
			C68.8,57,68.8,55.8,68.8,54.5z M45.4,54.6c0,0.9,0,1.7,0,2.6c0,1.4,0,1.4,1.4,1.5c0,0,0.1,0,0.1,0c0.4,0.1,0.6-0.1,0.6-0.5
			c0-0.6,0-1.2,0-1.8c0-2,0.4-1.6-1.8-1.8C45.7,54.5,45.6,54.5,45.4,54.6z M64.5,58.8c0-0.1,0.1-0.1,0.1-0.2c0-0.8,0-1.6,0-2.3
			c0-1.6,0.3-1.4-1.5-1.3c-0.5,0-0.6,0.2-0.6,0.7c0,0.5,0,1.1,0,1.6C62.5,59.3,62.5,59.3,64.5,58.8z M81.6,52.1
			c-0.6,0.2-1.2,0.3-1.6,0.4c-0.2,0.1-0.4,0.2-0.4,0.4c0,1.2,0,2.4,0,3.8c0.7-0.2,1.2-0.3,1.8-0.5c0.1,0,0.3-0.3,0.3-0.5
			C81.6,54.5,81.6,53.4,81.6,52.1z M43.3,58.1c0-1.1,0-2.1,0-3.1c0-0.2,0-0.3,0-0.5c-0.1-0.2-0.2-0.4-0.4-0.4
			c-0.5-0.1-1.1-0.2-1.7-0.3c0,0.9,0,1.6,0,2.3C41.2,58.1,41.2,58.1,43.3,58.1z M85.8,50.8c-0.7,0.2-1.2,0.4-1.7,0.6
			c-0.1,0.1-0.3,0.2-0.3,0.4c0,1.2,0,2.4,0,3.7c0.7-0.2,1.3-0.4,1.8-0.6c0.1,0,0.3-0.2,0.3-0.3C85.9,53.3,85.8,52.1,85.8,50.8z
			 M92.3,52c0.6-0.3,1.1-0.6,1.6-0.9c0.2-0.1,0.5-0.3,0.5-0.5c0-1.1,0-2.1,0-3.3c-0.7,0.3-1.2,0.6-1.7,0.8c-0.1,0.1-0.3,0.3-0.3,0.4
			C92.3,49.6,92.3,50.7,92.3,52z M28.4,50.8c0,1.2,0,2.4,0,3.5c0,0.1,0.1,0.3,0.2,0.4c0.6,0.2,1.1,0.4,1.9,0.7c0-1.3,0-2.4,0-3.5
			c0-0.1-0.1-0.4-0.3-0.4C29.6,51.2,29.1,51,28.4,50.8z M24.1,49.2c0,1.2,0,2.2,0,3.3c0,0.1,0.1,0.4,0.3,0.4
			c0.5,0.3,1.1,0.5,1.8,0.8c0-1.2,0-2.3,0-3.3c0-0.2-0.2-0.4-0.3-0.5C25.3,49.7,24.8,49.5,24.1,49.2z M19.9,47.3c0,1.1,0,2.1,0,3
			c0,0.1,0.1,0.3,0.2,0.3c0.6,0.4,1.1,0.7,1.9,1.1c0-1.2,0-2.2,0-3.2c0-0.1-0.1-0.3-0.2-0.4C21.1,47.9,20.6,47.6,19.9,47.3z
			 M96.6,49.2c0.1,0,0.2,0.1,0.3,0.1c0.6-0.5,1.5-0.9,1.7-1.6c0.3-0.8,0.1-1.9,0.1-3c-0.6,0.4-1.1,0.6-1.5,0.9
			c-0.2,0.1-0.5,0.4-0.5,0.5C96.6,47.3,96.6,48.3,96.6,49.2z M17.6,49c0.5-2.3-0.1-3.4-1.9-3.9C15.2,47,15.7,48,17.6,49z
			 M102.8,41.8c-1.6,0.5-2.5,2.3-1.8,4C102.3,44.8,103.4,43.7,102.8,41.8z M13.3,45.5c0.4-2-0.2-3.1-1.9-3.6
			C10.9,43.6,12.3,44.3,13.3,45.5z M107.1,36.9c-0.1,0-0.1-0.1-0.2-0.1c-0.6,0.7-1.2,1.4-1.7,2.2c-0.2,0.4-0.2,1-0.2,1.4
			c0.1,0,0.2,0,0.3,0.1C106,39.4,106.6,38.2,107.1,36.9z"/>
		<path class="st3" d="M57.1,51.2C47.8,51,38.7,49.8,30,46.5c-4.7-1.8-9.2-4.1-12.9-7.6c-1.8-1.8-3.4-3.8-4.2-6.3
			c-1.5-4.6-0.2-8.5,2.7-12.1c2.9-3.5,6.7-5.8,10.8-7.7C34.8,9,43.7,7.3,52.9,6.9c9.9-0.5,19.7,0.5,29.2,3.6
			c4.9,1.6,9.6,3.8,13.6,7.1c1.8,1.5,3.5,3.2,4.7,5.3c2.7,4.8,2.1,9.4-1.2,13.7c-2.4,3.2-5.7,5.4-9.2,7.3c-6.9,3.6-14.3,5.5-22,6.4
			C64.3,50.8,60.7,50.9,57.1,51.2z M58.2,49.1C66.7,49,76,47.7,84.8,44c4-1.7,7.7-3.9,10.7-7.2c4.4-4.9,4.4-10.8,0.1-15.7
			c-1.7-1.9-3.6-3.4-5.7-4.7c-6.9-4.1-14.5-6-22.4-7c-7.4-0.9-14.7-0.9-22.1,0.2c-6.6,0.9-13,2.6-19,5.7c-3.2,1.6-6.1,3.7-8.3,6.5
			c-2.3,3-3.4,6.3-2.3,10c0.7,2.4,2.1,4.4,3.9,6.1c4.1,3.9,9.1,6.2,14.3,7.9C41.6,48.1,49.3,49.1,58.2,49.1z"/>
	</g>
</g>
<g id="Comprobar">
	<polygon class="st3" points="52.2,30.9 45.1,23.4 37.1,31 37.1,31 52.1,45.3 77.3,21.2 71.5,15.5 	"/>
	<polygon class="st8" points="52.2,29.1 45.1,22.7 37.1,29.2 37.1,29.2 52.1,41.3 77.3,20.8 71.5,16 	"/>
</g>
</svg>
